<svg width="108" height="64" viewBox="0 0 108 64" fill="none" xmlns="http://www.w3.org/2000/svg">
<path opacity="0.23" d="M104.339 63.6533H3.66102C1.63904 63.6533 0 62.0064 0 59.9748C0 57.9432 1.63904 56.2964 3.66102 56.2964H104.339C106.361 56.2964 108 57.9432 108 59.9748C108 62.0064 106.361 63.6533 104.339 63.6533Z" fill="#1C1C1C"/>
<path d="M61.4129 51.7621H11.9892C10.9782 51.7621 10.1587 50.9387 10.1587 49.9229V13.5062C10.1587 12.4904 10.9782 11.667 11.9892 11.667H61.4129C62.4239 11.667 63.2434 12.4904 63.2434 13.5062V49.9229C63.2434 50.9387 62.4239 51.7621 61.4129 51.7621Z" fill="#B4AAC1"/>
<path d="M11.2568 48.8077V13.5067C11.2568 13.1004 11.5847 12.771 11.989 12.771H61.4128C61.8171 12.771 62.145 13.1004 62.145 13.5067V48.8077C62.145 49.214 61.8171 49.5434 61.4128 49.5434H11.989C11.5847 49.5434 11.2568 49.214 11.2568 48.8077Z" fill="#D3D3D1"/>
<path d="M61.4129 51.7621H11.9892C10.9782 51.7621 10.1587 50.9387 10.1587 49.9229V13.5062C10.1587 12.4904 10.9782 11.667 11.9892 11.667H61.4129C62.4239 11.667 63.2434 12.4904 63.2434 13.5062V49.9229C63.2434 50.9387 62.4239 51.7621 61.4129 51.7621Z" stroke="#0C1740" stroke-width="1.0983" stroke-miterlimit="10" stroke-linecap="round" stroke-linejoin="round"/>
<path d="M13.4536 43.0384V16.1857C13.4536 15.3732 14.1093 14.7144 14.918 14.7144H58.4841C59.2928 14.7144 59.9485 15.3732 59.9485 16.1857V43.0384C59.9485 43.851 59.2928 44.5098 58.4841 44.5098H14.918C14.1093 44.5098 13.4536 43.851 13.4536 43.0384Z" fill="#B4AAC1"/>
<path d="M14.9178 43.7738C14.5139 43.7738 14.1855 43.4438 14.1855 43.0381V16.1854C14.1855 15.7797 14.5139 15.4497 14.9178 15.4497H58.4838C58.8876 15.4497 59.216 15.7797 59.216 16.1854V43.0381C59.216 43.4438 58.8876 43.7738 58.4838 43.7738H14.9178Z" fill="#0C1740"/>
<g opacity="0.63">
<path d="M40.5121 29.2501C39.2599 28.6463 38.0076 28.8795 36.7554 29.176C36.7554 27.9178 36.7554 26.6595 36.7554 25.4013C38.0076 25.1047 39.2599 24.8716 40.5121 25.4755C40.5121 26.7337 40.5121 27.9919 40.5121 29.2501Z" fill="#4988E2"/>
<path d="M40.5121 33.6427C39.2599 33.0389 38.0076 33.2721 36.7554 33.5686C36.7554 32.3103 36.7554 31.0521 36.7554 29.7939C38.0076 29.4972 39.2599 29.2642 40.5121 29.868C40.5121 31.1262 40.5121 32.3845 40.5121 33.6427Z" fill="#4988E2"/>
<path d="M36.1376 33.7164C34.8854 34.0131 33.6331 34.2461 32.3809 33.6423C32.3809 32.3841 32.3809 31.1259 32.3809 29.8677C33.6331 30.4715 34.8854 30.2383 36.1376 29.9418C36.1376 31.1998 36.1376 32.458 36.1376 33.7164Z" fill="#4988E2"/>
<path d="M36.1376 29.3239C34.8854 29.6205 33.6331 29.8536 32.3809 29.2497C32.3809 27.9915 32.3809 26.7333 32.3809 25.4751C33.6331 26.0789 34.8854 25.8457 36.1376 25.5492C36.1376 26.8074 36.1376 28.0656 36.1376 29.3239Z" fill="#4988E2"/>
</g>
<path d="M40.2243 51.7622H33.1768C33.1768 54.1819 30.7926 56.192 27.7104 56.3708L25.0886 56.5229C23.6943 56.6038 22.6055 57.7421 22.6055 59.1191H50.7953C50.7953 57.7421 49.7065 56.6036 48.3122 56.5229L45.6904 56.3708C42.6085 56.192 40.2243 54.1821 40.2243 51.7622Z" fill="#B4AAC1"/>
<path d="M27.7104 56.3713L25.0886 56.5234C23.6943 56.6043 22.6055 57.7426 22.6055 59.1196H50.7953C50.7953 57.7426 49.7065 56.6041 48.3122 56.5234L45.6904 56.3713C45.3338 56.3507 44.9869 56.3043 44.6517 56.2368H28.749C28.4137 56.3045 28.067 56.3507 27.7104 56.3713Z" fill="#D3D3D1"/>
<path d="M41.3096 54.4321C40.6254 53.676 40.2247 52.7539 40.2247 51.7627H33.1772C33.1772 52.754 32.7767 53.6762 32.0923 54.4321H41.3096Z" fill="#958BA5"/>
<path d="M40.2243 51.7622H33.1768C33.1768 54.1819 30.7926 56.192 27.7104 56.3708L25.0886 56.5229C23.6943 56.6038 22.6055 57.7421 22.6055 59.1191H50.7953C50.7953 57.7421 49.7065 56.6036 48.3122 56.5229L45.6904 56.3708C42.6085 56.192 40.2243 54.1821 40.2243 51.7622Z" stroke="#0C1740" stroke-width="1.0983" stroke-miterlimit="10" stroke-linecap="round" stroke-linejoin="round"/>
<path d="M93.3332 56.5446H69.1705C68.3617 56.5446 67.7061 55.8858 67.7061 55.0732V2.47138C67.7061 1.65881 68.3617 1 69.1705 1H93.3332C94.1419 1 94.7976 1.65881 94.7976 2.47138V55.0732C94.7976 55.886 94.1419 56.5446 93.3332 56.5446Z" fill="#364477"/>
<path d="M93.3332 56.5446H69.1705C68.3617 56.5446 67.7061 55.8858 67.7061 55.0732V2.47138C67.7061 1.65881 68.3617 1 69.1705 1H93.3332C94.1419 1 94.7976 1.65881 94.7976 2.47138V55.0732C94.7976 55.886 94.1419 56.5446 93.3332 56.5446Z" stroke="#0C1740" stroke-width="1.0983" stroke-miterlimit="10" stroke-linecap="round" stroke-linejoin="round"/>
<path d="M81.2519 54.705C74.792 54.705 69.5366 49.4246 69.5366 42.934V3.02279C69.5366 2.92145 69.6186 2.83887 69.7197 2.83887H92.7841C92.8851 2.83887 92.9671 2.92145 92.9671 3.02279V42.934C92.9671 49.4246 87.7117 54.705 81.2519 54.705Z" fill="#3E5080"/>
<path d="M69.5366 6.98047V40.4603C69.5366 47.066 74.792 52.4401 81.2519 52.4401C87.7117 52.4401 92.9671 47.066 92.9671 40.4603V6.98047H69.5366Z" fill="#364477"/>
<path d="M81.2519 54.705C74.792 54.705 69.5366 49.4246 69.5366 42.934V3.02279C69.5366 2.92145 69.6186 2.83887 69.7197 2.83887H92.7841C92.8851 2.83887 92.9671 2.92145 92.9671 3.02279V42.934C92.9671 49.4246 87.7117 54.705 81.2519 54.705Z" stroke="#0C1740" stroke-width="0.549152" stroke-miterlimit="10" stroke-linecap="round" stroke-linejoin="round"/>
<path d="M81.2519 50.2939C74.792 50.2939 69.5366 45.0135 69.5366 38.5229V3.02328C69.5366 2.92194 69.6186 2.83936 69.7197 2.83936H92.7841C92.8851 2.83936 92.9671 2.92194 92.9671 3.02328V38.5229C92.9671 45.0135 87.7117 50.2939 81.2519 50.2939Z" fill="#485D8C"/>
<path d="M81.2519 50.2939C74.792 50.2939 69.5366 45.0135 69.5366 38.5229V3.02328C69.5366 2.92194 69.6186 2.83936 69.7197 2.83936H92.7841C92.8851 2.83936 92.9671 2.92194 92.9671 3.02328V38.5229C92.9671 45.0135 87.7117 50.2939 81.2519 50.2939Z" stroke="#0C1740" stroke-width="0.549152" stroke-miterlimit="10" stroke-linecap="round" stroke-linejoin="round"/>
<path d="M91.5027 56.5444H71.001V59.1193H91.5027V56.5444Z" fill="#263866"/>
<path d="M91.5027 56.5444H71.001V57.8319H91.5027V56.5444Z" fill="#1B2F5B"/>
<path d="M91.5027 56.5444H71.001V59.1193H91.5027V56.5444Z" stroke="#0C1740" stroke-width="1.0983" stroke-miterlimit="10" stroke-linecap="round" stroke-linejoin="round"/>
<path d="M90.6756 9.14561H71.828C71.3713 9.14561 71.001 8.77354 71.001 8.31465V5.28213C71.001 4.82325 71.3713 4.45117 71.828 4.45117H90.6756C91.1324 4.45117 91.5027 4.82325 91.5027 5.28213V8.31465C91.5027 8.77372 91.1324 9.14561 90.6756 9.14561Z" fill="#364477"/>
<path d="M90.6756 9.14561H71.828C71.3713 9.14561 71.001 8.77354 71.001 8.31465V5.28213C71.001 4.82325 71.3713 4.45117 71.828 4.45117H90.6756C91.1324 4.45117 91.5027 4.82325 91.5027 5.28213V8.31465C91.5027 8.77372 91.1324 9.14561 90.6756 9.14561Z" stroke="#0C1740" stroke-width="0.366102" stroke-miterlimit="10" stroke-linecap="round" stroke-linejoin="round"/>
<path d="M90.6753 15.9007H77.9335C77.4768 15.9007 77.1064 15.5286 77.1064 15.0697V12.9706C77.1064 12.5117 77.4768 12.1396 77.9335 12.1396H90.6753C91.132 12.1396 91.5023 12.5117 91.5023 12.9706V15.0697C91.5023 15.5286 91.132 15.9007 90.6753 15.9007Z" fill="#364477"/>
<path d="M90.6753 15.9007H77.9335C77.4768 15.9007 77.1064 15.5286 77.1064 15.0697V12.9706C77.1064 12.5117 77.4768 12.1396 77.9335 12.1396H90.6753C91.132 12.1396 91.5023 12.5117 91.5023 12.9706V15.0697C91.5023 15.5286 91.132 15.9007 90.6753 15.9007Z" stroke="#0C1740" stroke-width="0.366102" stroke-miterlimit="10" stroke-linecap="round" stroke-linejoin="round"/>
<path d="M81.5836 43.7411C83.3801 43.7411 84.8366 42.2777 84.8366 40.4726C84.8366 38.6675 83.3801 37.2041 81.5836 37.2041C79.787 37.2041 78.3306 38.6675 78.3306 40.4726C78.3306 42.2777 79.787 43.7411 81.5836 43.7411Z" fill="#5873A3"/>
<path d="M91.1726 26.2916H71.331C71.1487 26.2916 71.001 26.1432 71.001 25.96V21.4732C71.001 21.29 71.1487 21.1416 71.331 21.1416H91.1728C91.3551 21.1416 91.5028 21.29 91.5028 21.4732V25.96C91.5027 26.1432 91.355 26.2916 91.1726 26.2916Z" fill="#364477"/>
<path d="M81.2518 33.3448C82.2924 33.3448 83.136 32.4972 83.136 31.4517C83.136 30.4062 82.2924 29.5586 81.2518 29.5586C80.2112 29.5586 79.3677 30.4062 79.3677 31.4517C79.3677 32.4972 80.2112 33.3448 81.2518 33.3448Z" fill="#0C1740"/>
<path d="M81.2519 33.1942C82.2095 33.1942 82.9858 32.4142 82.9858 31.4521C82.9858 30.4899 82.2095 29.71 81.2519 29.71C80.2943 29.71 79.5181 30.4899 79.5181 31.4521C79.5181 32.4142 80.2943 33.1942 81.2519 33.1942Z" fill="#1F2F63"/>
<path d="M88.9878 24.3604H85.544C85.4334 24.3604 85.3438 24.2703 85.3438 24.1592V23.274C85.3438 23.1629 85.4334 23.0728 85.544 23.0728H88.9878C89.0983 23.0728 89.188 23.1629 89.188 23.274V24.1592C89.1878 24.2703 89.0983 24.3604 88.9878 24.3604Z" fill="#0C1740"/>
<path d="M85.5269 23.6995V23.2741C85.5269 23.2646 85.5345 23.2568 85.5441 23.2568H88.9878C88.9973 23.2568 89.005 23.2646 89.005 23.2741V23.6995C89.005 23.7091 88.9973 23.7168 88.9878 23.7168H85.5441C85.5345 23.7168 85.5269 23.7091 85.5269 23.6995Z" fill="#485D8C"/>
<path d="M84.2744 24.3604H80.8306C80.7201 24.3604 80.6304 24.2703 80.6304 24.1592V23.274C80.6304 23.1629 80.7201 23.0728 80.8306 23.0728H84.2744C84.3849 23.0728 84.4746 23.1629 84.4746 23.274V24.1592C84.4744 24.2703 84.3849 24.3604 84.2744 24.3604Z" fill="#0C1740"/>
<path d="M80.8135 23.6995V23.2741C80.8135 23.2646 80.8212 23.2568 80.8307 23.2568H84.2744C84.2839 23.2568 84.2916 23.2646 84.2916 23.2741V23.6995C84.2916 23.7091 84.2839 23.7168 84.2744 23.7168H80.8307C80.8212 23.7168 80.8135 23.7091 80.8135 23.6995Z" fill="#485D8C"/>
<path opacity="0.51" d="M56.5817 48.0459C57.1883 48.0459 57.68 47.5519 57.68 46.9424C57.68 46.3329 57.1883 45.8389 56.5817 45.8389C55.9751 45.8389 55.4834 46.3329 55.4834 46.9424C55.4834 47.5519 55.9751 48.0459 56.5817 48.0459Z" fill="#0C1740"/>
<path d="M56.5821 47.9669C57.1452 47.9669 57.6017 47.5082 57.6017 46.9424C57.6017 46.3766 57.1452 45.918 56.5821 45.918C56.019 45.918 55.5625 46.3766 55.5625 46.9424C55.5625 47.5082 56.019 47.9669 56.5821 47.9669Z" fill="white"/>
<path opacity="0.51" d="M54.0423 47.4942C54.3456 47.4942 54.5915 47.2471 54.5915 46.9424C54.5915 46.6377 54.3456 46.3906 54.0423 46.3906C53.739 46.3906 53.4932 46.6377 53.4932 46.9424C53.4932 47.2471 53.739 47.4942 54.0423 47.4942Z" fill="#0C1740"/>
<path d="M54.0422 47.4535C54.323 47.4535 54.5507 47.2248 54.5507 46.9426C54.5507 46.6604 54.323 46.4316 54.0422 46.4316C53.7614 46.4316 53.5337 46.6604 53.5337 46.9426C53.5337 47.2248 53.7614 47.4535 54.0422 47.4535Z" fill="white"/>
<g opacity="0.49">
<path d="M35.7707 46.6421L35.3989 47.0156L36.8861 48.5099L37.2579 48.1364L35.7707 46.6421Z" fill="#0C1740"/>
<path d="M36.5146 45.8949L35.771 46.6421L36.1427 47.0156L36.8863 46.2684L36.5146 45.8949Z" fill="#0C1740"/>
<path d="M37.6293 47.0155L36.8857 47.7627L37.2575 48.1362L38.0011 47.3891L37.6293 47.0155Z" fill="#0C1740"/>
<path d="M37.0717 46.455L36.3281 47.2021L36.6999 47.5756L37.4435 46.8285L37.0717 46.455Z" fill="#0C1740"/>
</g>
<path d="M80.2878 39.6922L79.77 40.2124L81.841 42.2932L82.3587 41.773L80.2878 39.6922Z" fill="#485D8C"/>
<path d="M81.3236 38.652L80.2881 39.6924L80.8058 40.2126L81.8413 39.1722L81.3236 38.652Z" fill="#485D8C"/>
<path d="M82.8763 40.2125L81.8408 41.2529L82.3586 41.7731L83.394 40.7327L82.8763 40.2125Z" fill="#485D8C"/>
<path d="M82.0994 39.4318L81.064 40.4722L81.5817 40.9924L82.6172 39.952L82.0994 39.4318Z" fill="#485D8C"/>
<path d="M90.027 14.5746H78.3421C78.2158 14.5746 78.1133 14.4716 78.1133 14.3447V13.5478C78.1133 13.4209 78.2158 13.3179 78.3421 13.3179H90.0268C90.1531 13.3179 90.2556 13.4209 90.2556 13.5478V14.3447C90.2558 14.4718 90.1533 14.5746 90.027 14.5746Z" fill="#0C1740"/>
<path d="M87.9065 14.9572H85.1913C84.6352 14.9572 84.1846 14.5044 84.1846 13.9457C84.1846 13.3869 84.6352 12.9341 85.1913 12.9341H87.9065C88.4627 12.9341 88.9133 13.3869 88.9133 13.9457C88.9133 14.5042 88.4627 14.9572 87.9065 14.9572Z" fill="#0C1740"/>
<path d="M78.4795 13.9462C78.4795 13.8023 78.5955 13.6855 78.7389 13.6855H89.6304C89.7735 13.6855 89.8898 13.8022 89.8898 13.9462C89.8898 14.09 89.7737 14.2068 89.6304 14.2068H78.7389C78.5957 14.2066 78.4795 14.09 78.4795 13.9462Z" fill="#091438"/>
<path d="M78.6392 24.3607C78.993 24.3607 79.2799 24.0725 79.2799 23.717C79.2799 23.3614 78.993 23.0732 78.6392 23.0732C78.2854 23.0732 77.9985 23.3614 77.9985 23.717C77.9985 24.0725 78.2854 24.3607 78.6392 24.3607Z" fill="#0C1740"/>
<path d="M76.0342 24.3607C76.3881 24.3607 76.6749 24.0725 76.6749 23.717C76.6749 23.3614 76.3881 23.0732 76.0342 23.0732C75.6804 23.0732 75.3936 23.3614 75.3936 23.717C75.3936 24.0725 75.6804 24.3607 76.0342 24.3607Z" fill="#0C1740"/>
<path opacity="0.58" d="M78.6392 24.3607C78.993 24.3607 79.2799 24.0725 79.2799 23.717C79.2799 23.3614 78.993 23.0732 78.6392 23.0732C78.2854 23.0732 77.9985 23.3614 77.9985 23.717C77.9985 24.0725 78.2854 24.3607 78.6392 24.3607Z" stroke="#1AC17D" stroke-width="0.366102" stroke-miterlimit="10"/>
<path opacity="0.58" d="M76.0342 24.3607C76.3881 24.3607 76.6749 24.0725 76.6749 23.717C76.6749 23.3614 76.3881 23.0732 76.0342 23.0732C75.6804 23.0732 75.3936 23.3614 75.3936 23.717C75.3936 24.0725 75.6804 24.3607 76.0342 24.3607Z" stroke="#F9232E" stroke-width="0.366102" stroke-miterlimit="10"/>
<path d="M80.4861 30.5449C80.2302 30.7634 80.0669 31.0886 80.0669 31.4517C80.0669 32.1079 80.5983 32.642 81.2516 32.642C81.9049 32.642 82.4363 32.1081 82.4363 31.4517C82.4363 31.0886 82.2732 30.7634 82.0171 30.5449" stroke="#0C1740" stroke-width="0.366102" stroke-miterlimit="10" stroke-linecap="round" stroke-linejoin="round"/>
<path d="M81.252 30.0508V31.4519" stroke="#0C1740" stroke-width="0.366102" stroke-miterlimit="10" stroke-linecap="round" stroke-linejoin="round"/>
<path d="M90.538 7.48596H72.0041C71.8652 7.48596 71.7524 7.37266 71.7524 7.23307V5.4858C71.7524 5.34621 71.8652 5.23291 72.0041 5.23291H90.538C90.677 5.23291 90.7897 5.34621 90.7897 5.4858V7.23307C90.7897 7.37266 90.6772 7.48596 90.538 7.48596Z" fill="#0C1740"/>
<path d="M90.4958 8.57384H89.2831C89.2009 8.57384 89.1343 8.50689 89.1343 8.42431V8.2174C89.1343 8.13482 89.2009 8.06787 89.2831 8.06787H90.4958C90.578 8.06787 90.6446 8.13482 90.6446 8.2174V8.42431C90.6445 8.50708 90.578 8.57384 90.4958 8.57384Z" fill="#0C1740"/>
<path d="M88.3259 8.57415C88.187 8.57415 88.0742 8.46085 88.0742 8.32125C88.0742 8.18166 88.187 8.06836 88.3259 8.06836C88.4648 8.06836 88.5776 8.18166 88.5776 8.32125C88.5776 8.46103 88.4648 8.57415 88.3259 8.57415Z" fill="#2AD142"/>
<path d="M84.4136 30.2463C84.6475 30.2463 84.837 30.0559 84.837 29.8209C84.837 29.586 84.6475 29.3955 84.4136 29.3955C84.1798 29.3955 83.9902 29.586 83.9902 29.8209C83.9902 30.0559 84.1798 30.2463 84.4136 30.2463Z" fill="#0C1740"/>
<path d="M84.4135 30.1312C84.5841 30.1312 84.7225 29.9922 84.7225 29.8207C84.7225 29.6493 84.5841 29.5103 84.4135 29.5103C84.2428 29.5103 84.1045 29.6493 84.1045 29.8207C84.1045 29.9922 84.2428 30.1312 84.4135 30.1312Z" fill="#1F2F63"/>
<path d="M66.259 58.4528H47.2217V56.9035C47.2217 56.3675 47.654 55.9331 48.1875 55.9331H65.2932C65.8266 55.9331 66.259 56.3675 66.259 56.9035V58.4528Z" fill="#B7B7B7"/>
<path d="M35.1698 58.4528H31.5088V56.9035C31.5088 56.3675 31.9412 55.9331 32.4746 55.9331H34.204C34.7374 55.9331 35.1698 56.3675 35.1698 56.9035V58.4528Z" fill="#B7B7B7"/>
<path d="M40.2806 58.4528H36.6196V56.9035C36.6196 56.3675 37.052 55.9331 37.5854 55.9331H39.3149C39.8483 55.9331 40.2806 56.3675 40.2806 56.9035V58.4528Z" fill="#B7B7B7"/>
<path d="M71.37 58.4528H67.709V56.9035C67.709 56.3675 68.1414 55.9331 68.6748 55.9331H70.4042C70.9376 55.9331 71.37 56.3675 71.37 56.9035V58.4528Z" fill="#B7B7B7"/>
<path d="M76.6639 58.4528H73.0029V56.9035C73.0029 56.3675 73.4353 55.9331 73.9687 55.9331H75.6982C76.2316 55.9331 76.6639 56.3675 76.6639 56.9035V58.4528Z" fill="#B7B7B7"/>
<path d="M81.7743 58.4528H78.1133V56.9035C78.1133 56.3675 78.5456 55.9331 79.0791 55.9331H80.8085C81.3419 55.9331 81.7743 56.3675 81.7743 56.9035V58.4528Z" fill="#B7B7B7"/>
<path d="M83.0053 61.4966H30.3873C29.5508 61.4966 28.8726 60.8151 28.8726 59.9746C28.8726 59.1341 29.5508 58.4526 30.3873 58.4526H83.0053C83.8418 58.4526 84.52 59.1341 84.52 59.9746C84.52 60.8151 83.8418 61.4966 83.0053 61.4966Z" fill="#D3D3D1"/>
<path d="M66.259 58.4528H47.2217V56.9035C47.2217 56.3675 47.654 55.9331 48.1875 55.9331H65.2932C65.8266 55.9331 66.259 56.3675 66.259 56.9035V58.4528Z" stroke="#0C1740" stroke-width="1.0983" stroke-miterlimit="10" stroke-linecap="round" stroke-linejoin="round"/>
<path d="M35.1698 58.4528H31.5088V56.9035C31.5088 56.3675 31.9412 55.9331 32.4746 55.9331H34.204C34.7374 55.9331 35.1698 56.3675 35.1698 56.9035V58.4528Z" stroke="#0C1740" stroke-width="1.0983" stroke-miterlimit="10" stroke-linecap="round" stroke-linejoin="round"/>
<path d="M40.2806 58.4528H36.6196V56.9035C36.6196 56.3675 37.052 55.9331 37.5854 55.9331H39.3149C39.8483 55.9331 40.2806 56.3675 40.2806 56.9035V58.4528Z" stroke="#0C1740" stroke-width="1.0983" stroke-miterlimit="10" stroke-linecap="round" stroke-linejoin="round"/>
<path d="M45.5931 58.4528H41.9321V56.9035C41.9321 56.3675 42.3645 55.9331 42.8979 55.9331H44.6274C45.1608 55.9331 45.5931 56.3675 45.5931 56.9035V58.4528Z" fill="#B7B7B7"/>
<path d="M45.5931 58.4528H41.9321V56.9035C41.9321 56.3675 42.3645 55.9331 42.8979 55.9331H44.6274C45.1608 55.9331 45.5931 56.3675 45.5931 56.9035V58.4528Z" stroke="#0C1740" stroke-width="1.0983" stroke-miterlimit="10" stroke-linecap="round" stroke-linejoin="round"/>
<path d="M71.37 58.4528H67.709V56.9035C67.709 56.3675 68.1414 55.9331 68.6748 55.9331H70.4042C70.9376 55.9331 71.37 56.3675 71.37 56.9035V58.4528V58.4528Z" stroke="#0C1740" stroke-width="1.0983" stroke-miterlimit="10" stroke-linecap="round" stroke-linejoin="round"/>
<path d="M76.6639 58.4528H73.0029V56.9035C73.0029 56.3675 73.4353 55.9331 73.9687 55.9331H75.6982C76.2316 55.9331 76.6639 56.3675 76.6639 56.9035V58.4528V58.4528Z" stroke="#0C1740" stroke-width="1.0983" stroke-miterlimit="10" stroke-linecap="round" stroke-linejoin="round"/>
<path d="M81.7743 58.4528H78.1133V56.9035C78.1133 56.3675 78.5456 55.9331 79.0791 55.9331H80.8085C81.3419 55.9331 81.7743 56.3675 81.7743 56.9035V58.4528V58.4528Z" stroke="#0C1740" stroke-width="1.0983" stroke-miterlimit="10" stroke-linecap="round" stroke-linejoin="round"/>
<path d="M83.0053 61.4966H30.3873C29.5508 61.4966 28.8726 60.8151 28.8726 59.9746C28.8726 59.1341 29.5508 58.4526 30.3873 58.4526H83.0053C83.8418 58.4526 84.52 59.1341 84.52 59.9746C84.52 60.8151 83.8418 61.4966 83.0053 61.4966Z" stroke="#0C1740" stroke-width="1.0983" stroke-miterlimit="10" stroke-linecap="round" stroke-linejoin="round"/>
<path d="M87.0454 61.4972C87.0454 59.2677 88.8443 57.4604 91.063 57.4604C93.2818 57.4604 95.0806 59.2679 95.0806 61.4972H87.0454Z" fill="#D3D3D1"/>
<path d="M87.0454 61.4972C87.0454 59.2677 88.8443 57.4604 91.063 57.4604C93.2818 57.4604 95.0806 59.2679 95.0806 61.4972H87.0454Z" stroke="#0C1740" stroke-width="1.0983" stroke-miterlimit="10" stroke-linecap="round" stroke-linejoin="round"/>
<path d="M91.0635 57.8525V59.0703" stroke="#0C1740" stroke-width="1.0983" stroke-miterlimit="10" stroke-linecap="round" stroke-linejoin="round"/>
<path opacity="0.72" d="M28.6759 43.7738L35.8576 29.6117L43.0394 15.4497H36.1252L21.7617 43.7738H28.6759Z" fill="#192859"/>
<path opacity="0.72" d="M37.2772 43.7738L51.6407 15.4497H48.1836L33.8203 43.7738H37.2772Z" fill="#192859"/>
<path d="M73.1637 29.1374C72.899 29.0097 72.6343 29.059 72.3696 29.1217C72.3696 28.8558 72.3696 28.5898 72.3696 28.3239C72.6343 28.2612 72.899 28.2119 73.1637 28.3395C73.1637 28.6055 73.1637 28.8714 73.1637 29.1374Z" fill="#67C18B"/>
<path d="M73.1637 30.0661C72.899 29.9384 72.6343 29.9877 72.3696 30.0504C72.3696 29.7845 72.3696 29.5185 72.3696 29.2526C72.6343 29.1899 72.899 29.1406 73.1637 29.2682C73.1637 29.5342 73.1637 29.8001 73.1637 30.0661Z" fill="#E5E56A"/>
<path d="M72.2389 30.0816C71.9742 30.1443 71.7095 30.1936 71.4448 30.0659C71.4448 29.8 71.4448 29.534 71.4448 29.2681C71.7095 29.3957 71.9742 29.3464 72.2389 29.2837C72.2389 29.5497 72.2389 29.8156 72.2389 30.0816Z" fill="#4988E2"/>
<path d="M72.2389 29.1528C71.9742 29.2156 71.7095 29.2649 71.4448 29.1372C71.4448 28.8713 71.4448 28.6053 71.4448 28.3394C71.7095 28.467 71.9742 28.4177 72.2389 28.355C72.2389 28.6209 72.2389 28.8869 72.2389 29.1528Z" fill="#E87060"/>
<path opacity="0.28" d="M73.709 28.8628H75.8902" stroke="#0C1740" stroke-width="0.366102" stroke-miterlimit="10" stroke-linecap="round" stroke-linejoin="round"/>
<path opacity="0.28" d="M73.709 29.5215H75.3941" stroke="#0C1740" stroke-width="0.366102" stroke-miterlimit="10" stroke-linecap="round" stroke-linejoin="round"/>
</svg>
