<svg width="37" height="37" viewBox="0 0 37 37" fill="none" xmlns="http://www.w3.org/2000/svg">
<path fill-rule="evenodd" clip-rule="evenodd" d="M16.0933 18.5738V27.6239C16.0933 27.7522 16.1969 27.8608 16.33 27.8608H19.6887C19.817 27.8608 19.9255 27.7572 19.9255 27.6239V18.4257H22.3619C22.4852 18.4257 22.5838 18.3319 22.5986 18.2085L22.8304 15.4386C22.8403 15.3004 22.7318 15.1819 22.5937 15.1819H19.9255V13.2169C19.9255 12.7577 20.3003 12.3825 20.759 12.3825H22.6331C22.7613 12.3825 22.8699 12.2788 22.8699 12.1455V9.37566C22.8699 9.24729 22.7663 9.13867 22.6331 9.13867H19.4618C17.6025 9.13867 16.0933 10.6495 16.0933 12.5108V15.1819H14.4164C14.2882 15.1819 14.1797 15.2856 14.1797 15.4189V18.1887C14.1797 18.3171 14.2833 18.4257 14.4164 18.4257H16.0933V18.5738Z" fill="#1D2A4C"/>
<path d="M18.5197 0C8.33023 0 0.0395508 8.29957 0.0395508 18.5C0.0395508 28.7004 8.33023 37 18.5197 37C28.7092 37 36.9999 28.7004 36.9999 18.5C36.9999 8.29957 28.7092 0 18.5197 0ZM34.6276 18.5C34.6276 27.392 27.4022 34.6252 18.5197 34.6252C9.63721 34.6252 2.40692 27.392 2.40692 18.5C2.40692 9.60795 9.63227 2.37483 18.5197 2.37483C27.4072 2.37483 34.6276 9.60795 34.6276 18.5Z" fill="#1D2A4C"/>
</svg>
