<svg width="81" height="72" viewBox="0 0 81 72" fill="none" xmlns="http://www.w3.org/2000/svg">
<path opacity="0.19" d="M74.1349 19.3608H17.0762V37.3852H13.0954V8.63465C13.0954 6.43612 11.3131 4.65381 9.11457 4.65381H2.66406V8.63465H9.11457V22.2131H6.46068C5.4836 22.2131 4.69141 23.0053 4.69141 23.9823V34.5979C4.69141 35.575 5.4836 36.3672 6.46068 36.3672H9.11457V42.1292H6.46068C5.4836 42.1292 4.69141 42.9214 4.69141 43.8985V52.3025C4.69141 53.2795 5.4836 54.0717 6.46068 54.0717H9.11457V68.1261C9.11457 69.2255 10.0056 70.1165 11.105 70.1165C12.2044 70.1165 13.0954 69.2255 13.0954 68.1261V59.1692H18.6427V61.6756C18.6427 62.5306 19.3358 63.2237 20.1908 63.2237C21.0458 63.2237 21.7389 62.5306 21.7389 61.6756V59.1692H25.1669V64.0347C25.1669 65.2561 26.157 66.2463 27.3784 66.2463H37.1094C38.3308 66.2463 39.321 65.2561 39.321 64.0347V59.1692H43.799V64.0347C43.799 65.2561 44.7891 66.2463 46.0105 66.2463H70.7802C72.0017 66.2463 72.9918 65.2561 72.9918 64.0347V59.1692H74.1349C76.822 59.1692 79.0004 56.9908 79.0004 54.3037V24.2263C79.0004 21.5392 76.822 19.3608 74.1349 19.3608Z" fill="#2D2D2D" stroke="#2D2D2D" stroke-width="3.08992" stroke-miterlimit="10"/>
<path d="M8.45001 19.5596V33.7137H5.79612C4.81904 33.7137 4.02686 32.9215 4.02686 31.9444V21.3288C4.02686 20.3518 4.81904 19.5596 5.79612 19.5596H8.45001Z" fill="#B4D8ED"/>
<path d="M8.45001 39.4756V51.4181H5.79612C4.81904 51.4181 4.02686 50.6259 4.02686 49.6488V41.2448C4.02686 40.2678 4.81904 39.4756 5.79612 39.4756H8.45001Z" fill="#B4D8ED"/>
<path opacity="0.73" d="M6.55225 19.5593L6.55225 33.7134L8.45044 33.7134L8.45044 19.5593L6.55225 19.5593Z" fill="#7BA9BF"/>
<path opacity="0.73" d="M6.55225 39.4754L6.55225 51.418L8.45044 51.418L8.45044 39.4754L6.55225 39.4754Z" fill="#7BA9BF"/>
<path d="M8.45001 19.5596V33.7137H5.79612C4.81904 33.7137 4.02686 32.9215 4.02686 31.9444V21.3288C4.02686 20.3518 4.81904 19.5596 5.79612 19.5596H8.45001Z" stroke="#2D2D2D" stroke-width="3.08992" stroke-miterlimit="10" stroke-linecap="round" stroke-linejoin="round"/>
<path d="M8.45001 39.4756V51.4181H5.79612C4.81904 51.4181 4.02686 50.6259 4.02686 49.6488V41.2448C4.02686 40.2678 4.81904 39.4756 5.79612 39.4756H8.45001Z" stroke="#2D2D2D" stroke-width="3.08992" stroke-miterlimit="10" stroke-linecap="round" stroke-linejoin="round"/>
<path d="M8.45051 2H2V5.98084H8.45051V65.4723C8.45051 66.5717 9.34155 67.4627 10.4409 67.4627C11.5403 67.4627 12.4313 66.5717 12.4313 65.4723V5.98084C12.4313 3.78231 10.649 2 8.45051 2Z" fill="#4F5C68"/>
<path d="M8.45051 2H2V5.98084H8.45051V65.4723C8.45051 66.5717 9.34155 67.4627 10.4409 67.4627C11.5403 67.4627 12.4313 66.5717 12.4313 65.4723V5.98084C12.4313 3.78231 10.649 2 8.45051 2Z" stroke="#2D2D2D" stroke-width="3.08992" stroke-miterlimit="10" stroke-linecap="round" stroke-linejoin="round"/>
<path d="M45.3468 63.5927H70.1165C71.338 63.5927 72.3281 62.6026 72.3281 61.3811V56.5156H43.1353V61.3811C43.1353 62.6026 44.1254 63.5927 45.3468 63.5927Z" fill="#35BC6C"/>
<path d="M43.1353 58.7637L72.3281 58.7637L72.3281 56.7363L43.1353 56.7363L43.1353 58.7637Z" fill="#2AA85D"/>
<path d="M70.7869 63.5927H69.2388V60.4965C69.2388 60.2521 69.4367 60.0542 69.6811 60.0542H70.3446C70.5889 60.0542 70.7869 60.2521 70.7869 60.4965V63.5927Z" fill="#FFC661"/>
<path d="M68.1331 63.5927H66.585V60.4965C66.585 60.2521 66.7829 60.0542 67.0273 60.0542H67.6907C67.9351 60.0542 68.1331 60.2521 68.1331 60.4965V63.5927Z" fill="#FFC661"/>
<path d="M65.4793 63.5927H63.9312V60.4965C63.9312 60.2521 64.1291 60.0542 64.3735 60.0542H65.0369C65.2813 60.0542 65.4793 60.2521 65.4793 60.4965V63.5927Z" fill="#FFC661"/>
<path d="M62.8254 63.5927H61.2773V60.4965C61.2773 60.2521 61.4753 60.0542 61.7197 60.0542H62.3831C62.6275 60.0542 62.8254 60.2521 62.8254 60.4965V63.5927Z" fill="#FFC661"/>
<path d="M60.1712 63.5927H58.623V60.4965C58.623 60.2521 58.821 60.0542 59.0654 60.0542H59.7288C59.9732 60.0542 60.1712 60.2521 60.1712 60.4965V63.5927Z" fill="#FFC661"/>
<path d="M57.5173 63.5927H55.9692V60.4965C55.9692 60.2521 56.1672 60.0542 56.4116 60.0542H57.075C57.3194 60.0542 57.5173 60.2521 57.5173 60.4965V63.5927Z" fill="#FFC661"/>
<path d="M54.8635 63.5927H53.3154V60.4965C53.3154 60.2521 53.5134 60.0542 53.7577 60.0542H54.4212C54.6656 60.0542 54.8635 60.2521 54.8635 60.4965V63.5927Z" fill="#FFC661"/>
<path d="M52.2092 63.5927H50.6611V60.4965C50.6611 60.2521 50.8591 60.0542 51.1034 60.0542H51.7669C52.0113 60.0542 52.2092 60.2521 52.2092 60.4965V63.5927Z" fill="#FFC661"/>
<path d="M49.5559 63.5927H48.0078V60.4965C48.0078 60.2521 48.2057 60.0542 48.4501 60.0542H49.1136C49.358 60.0542 49.5559 60.2521 49.5559 60.4965V63.5927Z" fill="#FFC661"/>
<path d="M46.9016 63.5927H45.3535V60.4965C45.3535 60.2521 45.5515 60.0542 45.7958 60.0542H46.4593C46.7037 60.0542 46.9016 60.2521 46.9016 60.4965V63.5927Z" fill="#FFC661"/>
<path d="M45.3468 63.5927H70.1165C71.338 63.5927 72.3281 62.6026 72.3281 61.3811V56.5156H43.1353V61.3811C43.1353 62.6026 44.1254 63.5927 45.3468 63.5927Z" stroke="#2D2D2D" stroke-width="3.08992" stroke-miterlimit="10" stroke-linecap="round" stroke-linejoin="round"/>
<path d="M26.7145 63.5927H36.4454C37.6669 63.5927 38.657 62.6026 38.657 61.3811V56.5156H24.5029V61.3811C24.5029 62.6026 25.4931 63.5927 26.7145 63.5927Z" fill="#35BC6C"/>
<path d="M24.5031 58.7637L38.6572 58.7637L38.6572 56.7363L24.5031 56.7363L24.5031 58.7637Z" fill="#2AA85D"/>
<path d="M36.4085 63.5927H34.8604V60.4965C34.8604 60.2521 35.0583 60.0542 35.3027 60.0542H35.9661C36.2105 60.0542 36.4085 60.2521 36.4085 60.4965V63.5927Z" fill="#FFC661"/>
<path d="M33.7546 63.5927H32.2065V60.4965C32.2065 60.2521 32.4045 60.0542 32.6489 60.0542H33.3123C33.5567 60.0542 33.7546 60.2521 33.7546 60.4965V63.5927Z" fill="#FFC661"/>
<path d="M31.1004 63.5927H29.5522V60.4965C29.5522 60.2521 29.7502 60.0542 29.9946 60.0542H30.658C30.9024 60.0542 31.1004 60.2521 31.1004 60.4965V63.5927Z" fill="#FFC661"/>
<path d="M28.4465 63.5927H26.8984V60.4965C26.8984 60.2521 27.0964 60.0542 27.3408 60.0542H28.0042C28.2486 60.0542 28.4465 60.2521 28.4465 60.4965V63.5927Z" fill="#FFC661"/>
<path d="M26.7145 63.5927H36.4454C37.6669 63.5927 38.657 62.6026 38.657 61.3811V56.5156H24.5029V61.3811C24.5029 62.6026 25.4931 63.5927 26.7145 63.5927Z" stroke="#2D2D2D" stroke-width="3.08992" stroke-miterlimit="10" stroke-linecap="round" stroke-linejoin="round"/>
<path d="M73.4707 16.7075H16.412V34.7319H12.4312V56.5159H73.4707C76.1578 56.5159 78.3362 54.3375 78.3362 51.6504V21.573C78.3362 18.8859 76.1578 16.7075 73.4707 16.7075Z" fill="#3C4652"/>
<path d="M73.4709 16.7075H71.8491C74.5362 16.7075 76.7146 18.8859 76.7146 21.573V51.6504C76.7146 54.3375 74.5362 56.5159 71.8491 56.5159H73.4709C76.1579 56.5159 78.3363 54.3375 78.3363 51.6504V21.573C78.3363 18.8859 76.1579 16.7075 73.4709 16.7075Z" fill="#363F49"/>
<path d="M73.4707 54.7722H12.4312V56.5154H73.4707C76.1578 56.5154 78.3362 54.337 78.3362 51.6499V49.9067C78.3362 52.5938 76.1578 54.7722 73.4707 54.7722Z" fill="#2F3942"/>
<path d="M73.4708 16.7075H16.4121V18.6869H73.4708C76.1579 18.6869 78.3363 20.8653 78.3363 23.5523V21.573C78.3363 18.8859 76.1579 16.7075 73.4708 16.7075Z" fill="#46515B"/>
<path d="M16.412 34.7319H12.4312V36.7113H16.412V34.7319Z" fill="#46515B"/>
<path d="M14.6803 34.7319H12.4307V56.516H14.6803V34.7319Z" fill="#2F3942"/>
<path d="M73.4707 16.7075H16.412V34.7319H12.4312V56.5159H73.4707C76.1578 56.5159 78.3362 54.3375 78.3362 51.6504V21.573C78.3362 18.8859 76.1578 16.7075 73.4707 16.7075Z" stroke="#2D2D2D" stroke-width="3.08992" stroke-miterlimit="10" stroke-linecap="round" stroke-linejoin="round"/>
<path d="M57.9904 51.208H19.5273V22.0151H57.9904C66.0519 22.0151 72.5868 28.5501 72.5868 36.6115C72.5868 44.673 66.0516 51.208 57.9904 51.208Z" fill="#4F5E6D"/>
<path d="M57.9904 51.208H19.5273V22.0151H57.9904C66.0519 22.0151 72.5868 28.5501 72.5868 36.6115C72.5868 44.673 66.0516 51.208 57.9904 51.208Z" stroke="#2D2D2D" stroke-width="2.57493" stroke-miterlimit="10" stroke-linecap="round" stroke-linejoin="round"/>
<path d="M57.96 48.9962C64.8 48.9962 70.3449 43.4514 70.3449 36.6114C70.3449 29.7714 64.8 24.2266 57.96 24.2266C51.1201 24.2266 45.5752 29.7714 45.5752 36.6114C45.5752 43.4514 51.1201 48.9962 57.96 48.9962Z" fill="#2D2D2D"/>
<path d="M58.6085 48.8228C57.8587 48.0662 57.2081 47.2143 56.6744 46.2899C55.0708 43.5121 54.6155 40.3084 55.3448 37.2531C53.7693 39.2643 52.8918 41.7645 52.8918 44.3503C52.8918 45.3435 53.02 46.3332 53.2728 47.2915L53.5159 48.2121L52.6556 47.8037C50.6977 46.8741 49.0089 45.4375 47.7711 43.6488L47.6539 43.4794L47.708 43.281C47.9885 42.2524 48.4012 41.2618 48.935 40.3372C50.5395 37.5583 53.0877 35.5615 56.1005 34.666C55.5585 34.5882 55.0109 34.549 54.4613 34.549C52.4552 34.549 50.4712 35.0825 48.7236 36.0916C47.8644 36.5877 47.0729 37.1923 46.3711 37.8878L45.6948 38.5584L45.6188 37.6092C45.5894 37.2438 45.5752 36.9172 45.5752 36.6109C45.5752 34.7571 45.9762 32.9724 46.7675 31.3064L46.8555 31.1206L47.0541 31.0684C48.0858 30.7962 49.1511 30.6582 50.2204 30.6582C53.4278 30.6582 56.4298 31.8657 58.7113 34.0253C57.7574 31.655 56.0306 29.6449 53.7916 28.3524C52.9324 27.8563 52.0124 27.4729 51.0577 27.2128L50.1408 26.9629L50.9221 26.4224C52.7066 25.1874 54.7955 24.4432 56.9622 24.2703L57.167 24.2539L57.3116 24.3997C58.0613 25.1562 58.712 26.0081 59.2456 26.9326C60.8492 29.7103 61.3048 32.9138 60.5752 35.9691C62.1508 33.9579 63.0283 31.4577 63.0283 28.8721C63.0283 27.8789 62.9 26.8892 62.6472 25.9309L62.4042 25.0103L63.2645 25.4188C65.2224 26.3481 66.9112 27.7849 68.149 29.5736L68.266 29.7428L68.212 29.9414C67.932 30.9694 67.5193 31.9599 66.985 32.8855C65.3805 35.6643 62.8324 37.6612 59.8195 38.5566C60.3616 38.6345 60.9092 38.6736 61.459 38.6736C63.4651 38.6736 65.4491 38.1402 67.1965 37.131C68.0554 36.635 68.847 36.0306 69.5491 35.3346L70.2261 34.6638L70.3017 35.6139C70.3307 35.9804 70.3449 36.3068 70.3449 36.6115C70.3449 38.4655 69.9439 40.2502 69.1526 41.9162L69.0646 42.102L68.866 42.1542C67.8338 42.4262 66.7685 42.5642 65.6997 42.5642C62.4922 42.5642 59.4902 41.3569 57.2087 39.1973C58.1626 41.5675 59.8894 43.5776 62.1284 44.8702C62.9876 45.3663 63.9076 45.7498 64.8624 46.0099L65.7793 46.2598L64.9979 46.8003C63.2134 48.0352 61.1246 48.7794 58.9579 48.9526L58.7531 48.9687L58.6085 48.8228Z" fill="#2677BC"/>
<path d="M53.7271 24.9748C53.8195 24.9412 53.9126 24.9093 54.0059 24.8779C53.9126 24.9093 53.8195 24.9412 53.7271 24.9748Z" fill="#CE1D47"/>
<path d="M53.2376 25.165C53.1513 25.2006 53.0651 25.2365 52.9795 25.2741C53.0651 25.2365 53.1513 25.2006 53.2376 25.165Z" fill="#CE1D47"/>
<path d="M53.6193 25.0151C53.5295 25.0488 53.4397 25.0828 53.3506 25.1184C53.4397 25.0828 53.5293 25.0488 53.6193 25.0151Z" fill="#CE1D47"/>
<path d="M52.86 25.3286C52.7779 25.3658 52.6961 25.4029 52.6147 25.4418C52.6959 25.4029 52.7779 25.3655 52.86 25.3286Z" fill="#CE1D47"/>
<path d="M52.4854 25.5054C52.4087 25.5432 52.3319 25.5812 52.2559 25.6206C52.3317 25.5812 52.4085 25.5432 52.4854 25.5054Z" fill="#CE1D47"/>
<path d="M51.742 25.9033C51.6816 25.9383 51.6212 25.9732 51.5615 26.0093C51.6212 25.9732 51.6816 25.9385 51.742 25.9033Z" fill="#CE1D47"/>
<path d="M52.1136 25.6963C52.0437 25.7337 51.974 25.771 51.9048 25.8097C51.974 25.771 52.0437 25.7337 52.1136 25.6963Z" fill="#CE1D47"/>
<path d="M51.3721 26.1274C51.3234 26.158 51.2748 26.188 51.2266 26.2194C51.2748 26.188 51.3234 26.158 51.3721 26.1274Z" fill="#CE1D47"/>
<path d="M51.0005 26.3701C50.9744 26.3878 50.9479 26.4046 50.922 26.4225L50.855 26.469C50.9032 26.4354 50.9521 26.4031 51.0005 26.3701Z" fill="#CE1D47"/>
<path d="M55.7766 24.4233C55.7452 24.4289 55.714 24.4353 55.6826 24.441L55.7766 24.4233Z" fill="#CE1D47"/>
<path d="M50.8313 26.4854L50.1406 26.9633L50.1829 26.9748C50.3936 26.8043 50.6099 26.641 50.8313 26.4854Z" fill="#CE1D47"/>
<path d="M54.3985 24.7534C54.3014 24.7826 54.2043 24.8122 54.1079 24.8439C54.2043 24.8122 54.3012 24.7824 54.3985 24.7534Z" fill="#CE1D47"/>
<path d="M54.7981 24.6406C54.6962 24.6676 54.5945 24.6953 54.4932 24.7247C54.5942 24.695 54.696 24.6674 54.7981 24.6406Z" fill="#CE1D47"/>
<path d="M46.5259 32.2614C47.5226 31.8808 48.5674 31.6302 49.6307 31.5163C52.82 31.1749 55.9335 32.056 58.4317 33.9604C58.3653 33.8356 58.2957 33.7127 58.2249 33.5908C56.0111 31.7054 53.2051 30.6587 50.2205 30.6587C49.1512 30.6587 48.0859 30.7967 47.0542 31.0689L46.8556 31.1211L46.7676 31.3069C46.6077 31.6435 46.4682 31.9863 46.3403 32.3322L46.5259 32.2614Z" fill="#256AA5"/>
<path d="M55.6231 24.4526C55.5054 24.4752 55.388 24.4991 55.271 24.525C55.388 24.4991 55.5052 24.475 55.6231 24.4526Z" fill="#CE1D47"/>
<path d="M55.206 24.54C55.0971 24.5648 54.9888 24.5905 54.8809 24.6181C54.9888 24.5907 55.0971 24.5648 55.206 24.54Z" fill="#CE1D47"/>
<path d="M70.0376 39.3645C70.0626 39.2548 70.0823 39.144 70.1042 39.0337C70.082 39.144 70.0628 39.2546 70.0376 39.3645Z" fill="#CE1D47"/>
<path d="M56.0152 24.5376C56.841 25.2101 57.5787 25.988 58.2079 26.8503C60.0982 29.4413 60.8919 32.5782 60.4918 35.6939C60.5666 35.574 60.6382 35.4524 60.7086 35.3299C61.2345 32.4701 60.7378 29.5168 59.2456 26.9321C58.7119 26.0076 58.0613 25.1557 57.3116 24.3992L57.1669 24.2534L56.9622 24.2698C56.5913 24.2994 56.223 24.347 55.8579 24.4096L56.0152 24.5376Z" fill="#2B608C"/>
<path d="M67.4439 28.888C67.275 29.94 66.9702 30.9686 66.5374 31.9457C65.2379 34.8796 62.9166 37.1363 60.0161 38.3474C60.1557 38.3524 60.2952 38.3546 60.4348 38.3546C63.1784 37.3811 65.4913 35.473 66.9852 32.8852C67.5196 31.9597 67.9322 30.9693 68.2122 29.9411L68.2662 29.7425L68.1492 29.5734C67.9387 29.269 67.7104 28.9791 67.4747 28.6958L67.4439 28.888Z" fill="#1E5B8F"/>
<path d="M70.2748 35.2923C70.2929 35.461 70.3037 35.6293 70.315 35.7976C70.3108 35.7368 70.3068 35.6762 70.302 35.6132L70.2263 34.6631L70.1934 34.6958C70.227 34.9048 70.2544 35.1032 70.2748 35.2923Z" fill="#CE1D47"/>
<path d="M69.3931 40.9616C68.3957 41.342 67.3512 41.5928 66.2883 41.7065C63.099 42.048 59.9855 41.1671 57.4873 39.2627C57.5537 39.3874 57.6233 39.5104 57.6941 39.6323C59.9079 41.5176 62.7139 42.5641 65.6985 42.5641C66.7673 42.5641 67.8326 42.4261 68.8648 42.1541L69.0634 42.1019L69.1514 41.9161C69.3113 41.5795 69.4508 41.2367 69.5787 40.8909L69.3931 40.9616Z" fill="#1D5686"/>
<path d="M70.332 36.1045C70.3391 36.2706 70.344 36.4367 70.3444 36.6023C70.3442 36.4433 70.34 36.2779 70.332 36.1045Z" fill="#CE1D47"/>
<path d="M70.1743 38.6719C70.179 38.645 70.1816 38.6173 70.186 38.5903C70.1816 38.6173 70.179 38.6447 70.1743 38.6719Z" fill="#CE1D47"/>
<path d="M70.0073 39.4839C69.9098 39.8908 69.7937 40.2949 69.6537 40.6943L69.6499 40.7051C69.791 40.3039 69.9091 39.8963 70.0073 39.4839Z" fill="#CE1D47"/>
<path d="M66.0936 27.2804C65.9826 27.1835 65.8687 27.09 65.7544 26.9971C65.8687 27.09 65.9824 27.1835 66.0936 27.2804Z" fill="#CE1D47"/>
<path d="M65.4773 26.7763C65.3517 26.6801 65.2234 26.5879 65.0942 26.4966C65.2234 26.5879 65.3517 26.6804 65.4773 26.7763Z" fill="#CE1D47"/>
<path d="M63.4255 25.5016C63.3711 25.4749 63.3187 25.4441 63.2636 25.4182L62.4033 25.0098L62.4173 25.0624C62.7598 25.1951 63.0969 25.3395 63.4255 25.5016Z" fill="#CE1D47"/>
<path d="M64.827 26.3118C64.6901 26.2203 64.5503 26.1329 64.4097 26.0469C64.5503 26.1329 64.6899 26.2203 64.827 26.3118Z" fill="#CE1D47"/>
<path d="M64.1444 25.8856C64.0011 25.8029 63.8556 25.7244 63.709 25.6475C63.8554 25.7244 64.0011 25.8027 64.1444 25.8856Z" fill="#CE1D47"/>
<path d="M66.6777 27.8232C66.5815 27.7279 66.4829 27.6355 66.3838 27.5435C66.4829 27.6355 66.5815 27.7279 66.6777 27.8232Z" fill="#CE1D47"/>
<path d="M66.9741 28.1299C67.0593 28.2201 67.144 28.3108 67.2265 28.4037C67.144 28.3108 67.059 28.2203 66.9741 28.1299Z" fill="#CE1D47"/>
<path d="M49.8267 45.9424C49.9372 46.0388 50.0505 46.1319 50.1646 46.2244C50.0505 46.1321 49.9372 46.0388 49.8267 45.9424Z" fill="#CE1D47"/>
<path d="M52.4922 47.7197C52.547 47.7467 52.5999 47.7777 52.6552 47.8038L53.5155 48.2122L53.5016 48.1596C53.1588 48.0269 52.821 47.8823 52.4922 47.7197Z" fill="#CE1D47"/>
<path d="M59.9044 48.6844C59.0784 48.0118 58.3409 47.234 57.7117 46.3717C55.8214 43.7806 55.0277 40.6435 55.4278 37.5278C55.353 37.6477 55.2814 37.7693 55.211 37.8916C54.6853 40.7514 55.1818 43.705 56.674 46.2899C57.2076 47.2143 57.8583 48.0662 58.608 48.8228L58.7527 48.9685L58.9574 48.9524C59.3283 48.9228 59.6965 48.8752 60.0617 48.8124L59.9044 48.6844Z" fill="#194F7D"/>
<path d="M49.2432 45.3999C49.3387 45.4948 49.4369 45.5866 49.5355 45.6783C49.4369 45.5868 49.3387 45.4948 49.2432 45.3999Z" fill="#CE1D47"/>
<path d="M51.7754 47.3364C51.9191 47.4196 52.0653 47.4983 52.2124 47.5755C52.0653 47.4983 51.9191 47.4196 51.7754 47.3364Z" fill="#CE1D47"/>
<path d="M51.0928 46.9116C51.2297 47.0032 51.3692 47.0903 51.5097 47.1764C51.3692 47.0905 51.2297 47.0032 51.0928 46.9116Z" fill="#CE1D47"/>
<path d="M61.5283 48.4675C61.6225 48.4392 61.7165 48.4104 61.8099 48.3799C61.7165 48.4104 61.6225 48.4392 61.5283 48.4675Z" fill="#CE1D47"/>
<path d="M50.4424 46.4468C50.5676 46.5425 50.6954 46.6345 50.8241 46.7254C50.6954 46.6345 50.5676 46.5425 50.4424 46.4468Z" fill="#CE1D47"/>
<path d="M64.9189 46.8533C64.9448 46.8356 64.9714 46.819 64.9972 46.8011L65.064 46.7549C65.0163 46.7883 64.9674 46.8203 64.9189 46.8533Z" fill="#CE1D47"/>
<path d="M61.1299 48.5802C61.2283 48.5541 61.3267 48.5276 61.4245 48.499C61.3267 48.5273 61.2283 48.5541 61.1299 48.5802Z" fill="#CE1D47"/>
<path d="M65.0884 46.7372L65.7791 46.2595L65.7368 46.248C65.5258 46.4183 65.3095 46.5815 65.0884 46.7372Z" fill="#CE1D47"/>
<path d="M60.1416 48.7998C60.1706 48.7947 60.1993 48.789 60.2281 48.7837L60.1416 48.7998Z" fill="#CE1D47"/>
<path d="M60.7241 48.6804C60.8283 48.6566 60.9322 48.632 61.0357 48.6055C60.9322 48.632 60.8283 48.6566 60.7241 48.6804Z" fill="#CE1D47"/>
<path d="M60.3101 48.7675C60.422 48.7458 60.5334 48.7233 60.6445 48.6987C60.5334 48.7233 60.422 48.7461 60.3101 48.7675Z" fill="#CE1D47"/>
<path d="M64.1782 47.3186C64.2384 47.2837 64.2987 47.2489 64.3582 47.2129C64.2985 47.2489 64.2384 47.2839 64.1782 47.3186Z" fill="#CE1D47"/>
<path d="M62.6846 48.0565C62.7695 48.0215 62.8542 47.9862 62.9382 47.9492C62.8542 47.9862 62.7695 48.0215 62.6846 48.0565Z" fill="#CE1D47"/>
<path d="M63.063 47.8927C63.1437 47.8562 63.2244 47.8195 63.3045 47.7812C63.2244 47.8195 63.1437 47.8562 63.063 47.8927Z" fill="#CE1D47"/>
<path d="M62.3042 48.206C62.3924 48.173 62.4805 48.1397 62.5678 48.1045C62.4805 48.1397 62.3924 48.173 62.3042 48.206Z" fill="#CE1D47"/>
<path d="M62.1911 48.2485C62.1011 48.2813 62.0106 48.3122 61.9199 48.3427C62.0104 48.3122 62.1011 48.2813 62.1911 48.2485Z" fill="#CE1D47"/>
<path d="M63.4355 47.7174C63.5118 47.6798 63.5879 47.6422 63.6636 47.603C63.5879 47.6422 63.5118 47.6798 63.4355 47.7174Z" fill="#CE1D47"/>
<path d="M64.5483 47.0954C64.597 47.0649 64.6457 47.0348 64.6939 47.0034C64.6457 47.0348 64.5968 47.0649 64.5483 47.0954Z" fill="#CE1D47"/>
<path d="M63.8071 47.5259C63.8766 47.4887 63.9458 47.4516 64.0146 47.4131C63.9458 47.4516 63.8764 47.4887 63.8071 47.5259Z" fill="#CE1D47"/>
<path d="M45.5874 37.1174C45.5803 36.9518 45.5756 36.7866 45.5752 36.6216C45.5752 36.7804 45.5794 36.9451 45.5874 37.1174Z" fill="#CE1D47"/>
<path d="M45.6455 37.9296C45.6284 37.7699 45.6185 37.6109 45.6074 37.4517C45.6112 37.5041 45.6145 37.5556 45.6187 37.6096L45.6948 38.5588L45.7271 38.5267C45.6932 38.3179 45.6658 38.1196 45.6455 37.9296Z" fill="#CE1D47"/>
<path d="M46.2664 32.5291L46.2702 32.5181C46.1289 32.9199 46.0108 33.3277 45.9126 33.7406C46.0101 33.3333 46.1265 32.9288 46.2664 32.5291Z" fill="#CE1D47"/>
<path d="M48.4758 44.3348C48.645 43.2821 48.95 42.2533 49.3823 41.2771C50.6819 38.3432 53.0031 36.0865 55.9036 34.8755C55.7641 34.8704 55.6245 34.8682 55.485 34.8682C52.7413 35.8417 50.4284 37.7499 48.9345 40.3376C48.4006 41.2625 47.9879 42.2529 47.7075 43.2817L47.6533 43.48L47.7705 43.6495C47.9811 43.9535 48.2091 44.2435 48.4448 44.5266L48.4758 44.3348Z" fill="#184265"/>
<path d="M48.9439 45.0913C48.8592 45.0015 48.7749 44.9113 48.6929 44.8188C48.7749 44.9115 48.8592 45.0013 48.9439 45.0913Z" fill="#CE1D47"/>
<path d="M45.7339 34.6303C45.7383 34.6035 45.741 34.5766 45.7454 34.5498C45.741 34.5766 45.7381 34.6035 45.7339 34.6303Z" fill="#CE1D47"/>
<path d="M45.8154 34.189C45.8375 34.0786 45.8568 33.9678 45.882 33.8579C45.857 33.9676 45.8373 34.0786 45.8154 34.189Z" fill="#CE1D47"/>
<path d="M57.7464 41.2559C60.3113 41.2559 62.3907 39.1766 62.3907 36.6116C62.3907 34.0466 60.3113 31.9673 57.7464 31.9673C55.1814 31.9673 53.1021 34.0466 53.1021 36.6116C53.1021 39.1766 55.1814 41.2559 57.7464 41.2559Z" fill="#2069A8"/>
<path d="M57.7461 40.0346C59.6367 40.0346 61.1694 38.5019 61.1694 36.6113C61.1694 34.7207 59.6367 33.188 57.7461 33.188C55.8554 33.188 54.3228 34.7207 54.3228 36.6113C54.3228 38.5019 55.8554 40.0346 57.7461 40.0346Z" fill="#429BE8"/>
<path d="M57.7145 39.4832C59.3005 39.4832 60.5862 38.1975 60.5862 36.6115C60.5862 35.0255 59.3005 33.7397 57.7145 33.7397C56.1285 33.7397 54.8428 35.0255 54.8428 36.6115C54.8428 38.1975 56.1285 39.4832 57.7145 39.4832Z" fill="#2D2D2D"/>
<path d="M57.96 48.9962C64.8 48.9962 70.3449 43.4514 70.3449 36.6114C70.3449 29.7714 64.8 24.2266 57.96 24.2266C51.1201 24.2266 45.5752 29.7714 45.5752 36.6114C45.5752 43.4514 51.1201 48.9962 57.96 48.9962Z" stroke="#2D2D2D" stroke-width="3.08992" stroke-miterlimit="10" stroke-linecap="round" stroke-linejoin="round"/>
<path d="M34.6186 28.9221H23.8969C22.949 28.9221 22.1807 28.1538 22.1807 27.2059C22.1807 26.2581 22.949 25.4897 23.8969 25.4897H34.6184C35.5662 25.4897 36.3345 26.2581 36.3345 27.2059C36.3348 28.1538 35.5665 28.9221 34.6186 28.9221Z" fill="#2D2D2D"/>
<path d="M23.8969 28.9227C23.0724 28.9227 22.4019 28.2519 22.4019 27.4276C22.4019 26.6034 23.0726 25.9326 23.8969 25.9326H34.6184C35.4429 25.9326 36.1134 26.6034 36.1134 27.4276C36.1134 28.2519 35.4426 28.9227 34.6184 28.9227H23.8969Z" fill="#232323"/>
<path d="M34.6186 34.8977H23.8969C22.949 34.8977 22.1807 34.1294 22.1807 33.1815C22.1807 32.2336 22.949 31.4653 23.8969 31.4653H34.6184C35.5662 31.4653 36.3345 32.2336 36.3345 33.1815C36.3348 34.1292 35.5665 34.8977 34.6186 34.8977Z" fill="#2D2D2D"/>
<path d="M23.8969 34.8978C23.0724 34.8978 22.4019 34.227 22.4019 33.4027C22.4019 32.5785 23.0726 31.9077 23.8969 31.9077H34.6184C35.4429 31.9077 36.1134 32.5785 36.1134 33.4027C36.1134 34.227 35.4426 34.8978 34.6184 34.8978H23.8969Z" fill="#232323"/>
<path d="M34.6186 40.8728H23.8969C22.949 40.8728 22.1807 40.1045 22.1807 39.1566C22.1807 38.2087 22.949 37.4404 23.8969 37.4404H34.6184C35.5662 37.4404 36.3345 38.2087 36.3345 39.1566C36.3348 40.1045 35.5665 40.8728 34.6186 40.8728Z" fill="#2D2D2D"/>
<path d="M23.8969 40.8731C23.0724 40.8731 22.4019 40.2023 22.4019 39.3781C22.4019 38.5536 23.0726 37.8828 23.8969 37.8828H34.6184C35.4429 37.8828 36.1134 38.5536 36.1134 39.3781C36.1134 40.2025 35.4426 40.8731 34.6184 40.8731H23.8969Z" fill="#232323"/>
<path d="M34.6186 46.8479H23.8969C22.949 46.8479 22.1807 46.0796 22.1807 45.1317C22.1807 44.1838 22.949 43.4155 23.8969 43.4155H34.6184C35.5662 43.4155 36.3345 44.1838 36.3345 45.1317C36.3348 46.0796 35.5665 46.8479 34.6186 46.8479Z" fill="#2D2D2D"/>
<path d="M23.8969 46.8482C23.0724 46.8482 22.4019 46.1774 22.4019 45.3529C22.4019 44.5285 23.0726 43.8579 23.8969 43.8579H34.6184C35.4429 43.8579 36.1134 44.5285 36.1134 45.3529C36.1134 46.1774 35.4426 46.8482 34.6184 46.8482H23.8969Z" fill="#232323"/>
<path d="M19.5266 60.5701C18.6716 60.5701 17.9785 59.877 17.9785 59.022V56.5156H21.0747V59.022C21.0747 59.877 20.3816 60.5701 19.5266 60.5701Z" fill="#2D2D2D" stroke="#2D2D2D" stroke-width="3.08992" stroke-miterlimit="10"/>
</svg>
