<svg width="297" height="241" viewBox="0 0 297 241" fill="none" xmlns="http://www.w3.org/2000/svg">
<path d="M40.4239 73.2686V86.5198H13.9214" stroke="#8DC6BF" stroke-width="2.57048" stroke-miterlimit="10" stroke-linecap="round" stroke-linejoin="round"/>
<path d="M66.9264 86.5198H40.4243V73.2686" stroke="#8DC6BF" stroke-width="2.57048" stroke-miterlimit="10" stroke-linecap="round" stroke-linejoin="round"/>
<path d="M53.6759 86.5195H27.1733V99.7708H53.6759V86.5195Z" stroke="#8DC6BF" stroke-width="2.57048" stroke-miterlimit="10" stroke-linecap="round" stroke-linejoin="round"/>
<path d="M47.9546 113.022H40.4243V99.7705H66.9264" stroke="#8DC6BF" stroke-width="2.57048" stroke-miterlimit="10" stroke-linecap="round" stroke-linejoin="round"/>
<path d="M13.9214 99.7705H40.4239V113.022H18.9334" stroke="#8DC6BF" stroke-width="2.57048" stroke-miterlimit="10" stroke-linecap="round" stroke-linejoin="round"/>
<path d="M4.88672 86.5195H27.1724V99.7708H13.9211" stroke="#8DC6BF" stroke-width="2.57048" stroke-miterlimit="10" stroke-linecap="round" stroke-linejoin="round"/>
<path d="M72.8006 99.7708H53.6758V86.5195H62.8623" stroke="#8DC6BF" stroke-width="2.57048" stroke-miterlimit="10" stroke-linecap="round" stroke-linejoin="round"/>
<path d="M255.754 69.7188V82.97H229.252" stroke="#8DC6BF" stroke-width="2.57048" stroke-miterlimit="10" stroke-linecap="round" stroke-linejoin="round"/>
<path d="M282.257 82.97H255.754V69.7188" stroke="#8DC6BF" stroke-width="2.57048" stroke-miterlimit="10" stroke-linecap="round" stroke-linejoin="round"/>
<path d="M269.006 82.9702H242.503V96.2215H269.006V82.9702Z" stroke="#8DC6BF" stroke-width="2.57048" stroke-miterlimit="10" stroke-linecap="round" stroke-linejoin="round"/>
<path d="M217.097 29.5049H239.383V42.7562H226.132" stroke="#8DC6BF" stroke-width="2.57048" stroke-miterlimit="10" stroke-linecap="round" stroke-linejoin="round"/>
<path d="M288.131 96.2215H269.006V82.9702H278.192" stroke="#8DC6BF" stroke-width="2.57048" stroke-miterlimit="10" stroke-linecap="round" stroke-linejoin="round"/>
<path d="M54.8233 130.524H31.689V139.949H54.8233V130.524Z" fill="#313031"/>
<path d="M54.8233 130.524H31.689V139.949H54.8233V130.524Z" stroke="#313031" stroke-width="4.28414" stroke-miterlimit="10" stroke-linecap="round" stroke-linejoin="round"/>
<path d="M95.5838 156.443C105.048 156.443 112.72 148.771 112.72 139.306C112.72 129.842 105.048 122.17 95.5838 122.17C86.1196 122.17 78.4473 129.842 78.4473 139.306C78.4473 148.771 86.1196 156.443 95.5838 156.443Z" fill="#2677BC"/>
<path opacity="0.74" d="M89.3007 139.306C89.3007 131.739 94.2073 125.323 101.011 123.052C99.3046 122.483 97.4813 122.17 95.5838 122.17C86.1197 122.17 78.4473 129.842 78.4473 139.306C78.4473 148.771 86.1197 156.443 95.5838 156.443C97.4813 156.443 99.3046 156.13 101.011 155.56C94.2073 153.29 89.3007 146.874 89.3007 139.306Z" fill="#0BC6D5"/>
<path d="M95.5838 156.443C105.048 156.443 112.72 148.771 112.72 139.306C112.72 129.842 105.048 122.17 95.5838 122.17C86.1196 122.17 78.4473 129.842 78.4473 139.306C78.4473 148.771 86.1196 156.443 95.5838 156.443Z" stroke="#313031" stroke-width="4.28414" stroke-miterlimit="10" stroke-linecap="round" stroke-linejoin="round"/>
<path d="M95.584 119.885V82.9702" stroke="#313031" stroke-width="5.99779" stroke-miterlimit="10" stroke-linecap="round" stroke-linejoin="round"/>
<path d="M122.812 93.1448H68.355L76.1345 54.2466H115.033L122.812 93.1448Z" stroke="#313031" stroke-width="4.28414" stroke-miterlimit="10" stroke-linecap="round" stroke-linejoin="round"/>
<path d="M122.812 93.1448H68.355L76.1345 54.2466H115.033L122.812 93.1448Z" fill="#F0F4F7"/>
<path d="M76.1345 54.2466L68.355 93.1448H88.1464L92.4567 54.2466H76.1345Z" fill="#DBDBDB"/>
<path d="M122.812 93.1448H68.355L76.1345 54.2466H115.033L122.812 93.1448Z" stroke="#313031" stroke-width="4.28414" stroke-miterlimit="10" stroke-linecap="round" stroke-linejoin="round"/>
<path d="M108.533 93.1445V103.819" stroke="#313031" stroke-width="1.71366" stroke-miterlimit="10" stroke-linecap="round" stroke-linejoin="round"/>
<path d="M108.533 110.567C110.396 110.567 111.907 109.057 111.907 107.194C111.907 105.33 110.396 103.82 108.533 103.82C106.67 103.82 105.159 105.33 105.159 107.194C105.159 109.057 106.67 110.567 108.533 110.567Z" stroke="#313031" stroke-width="1.71366" stroke-miterlimit="10" stroke-linecap="round" stroke-linejoin="round"/>
<path d="M108.533 110.567C110.396 110.567 111.907 109.057 111.907 107.194C111.907 105.33 110.396 103.82 108.533 103.82C106.67 103.82 105.159 105.33 105.159 107.194C105.159 109.057 106.67 110.567 108.533 110.567Z" fill="#313031"/>
<path d="M38.8435 208.495H25.1343V217.063H38.8435V208.495Z" stroke="#313031" stroke-width="4.28414" stroke-miterlimit="10" stroke-linecap="round" stroke-linejoin="round"/>
<path d="M38.8435 208.495H25.1343V217.063H38.8435V208.495Z" fill="#313031"/>
<path d="M108.676 208.495H94.9663V217.063H108.676V208.495Z" stroke="#313031" stroke-width="4.28414" stroke-miterlimit="10" stroke-linecap="round" stroke-linejoin="round"/>
<path d="M108.676 208.495H94.9663V217.063H108.676V208.495Z" fill="#313031"/>
<path d="M166.081 170.795V114.673C166.081 102.369 176.054 92.395 188.358 92.395H228.777C241.081 92.395 251.055 102.369 251.055 114.673V170.795H166.081Z" fill="#2677BC"/>
<path opacity="0.6" d="M228.777 92.8232H188.358C176.054 92.8232 166.081 102.797 166.081 115.101V120.313C166.081 108.01 176.054 98.0357 188.358 98.0357H228.777C241.081 98.0357 251.055 108.01 251.055 120.313V115.101C251.055 102.797 241.081 92.8232 228.777 92.8232Z" fill="#111A31"/>
<path d="M166.081 170.795V114.673C166.081 102.369 176.054 92.395 188.358 92.395H228.777C241.081 92.395 251.055 102.369 251.055 114.673V170.795H166.081Z" stroke="#313031" stroke-width="4.28414" stroke-miterlimit="10" stroke-linecap="round" stroke-linejoin="round"/>
<path d="M119.386 174.222H14.853V208.495H119.386V174.222Z" fill="#7C4F49"/>
<path opacity="0.24" d="M78.4472 191.359H52.981V195.286H78.4472V191.359Z" stroke="#7C4F49" stroke-width="4.28414" stroke-miterlimit="10" stroke-linecap="round" stroke-linejoin="round"/>
<path opacity="0.54" d="M119.386 174.472H14.853V178.613H119.386V174.472Z" fill="#7C4F49"/>
<path opacity="0.24" d="M119.386 204.283H14.853V208.424H119.386V204.283Z" fill="#7C4F49"/>
<path d="M119.386 174.222H14.853V208.495H119.386V174.222Z" stroke="#313031" stroke-width="4.28414" stroke-miterlimit="10" stroke-linecap="round" stroke-linejoin="round"/>
<path d="M119.386 139.949H14.853V174.222H119.386V139.949Z" fill="#7C4F49"/>
<path opacity="0.24" d="M78.4472 157.086H52.981V161.013H78.4472V157.086Z" stroke="#7C4F49" stroke-width="4.28414" stroke-miterlimit="10" stroke-linecap="round" stroke-linejoin="round"/>
<path opacity="0.24" d="M119.386 169.938H14.853V174.079H119.386V169.938Z" fill="#7C4F49"/>
<path opacity="0.54" d="M119.386 139.949H14.853V144.091H119.386V139.949Z" fill="#7C4F49"/>
<path d="M119.386 139.949H14.853V174.222H119.386V139.949Z" stroke="#313031" stroke-width="4.28414" stroke-miterlimit="10" stroke-linecap="round" stroke-linejoin="round"/>
<path d="M270.258 208.745H247.124V147.054C247.124 143.268 250.193 140.199 253.979 140.199H263.404C267.19 140.199 270.258 143.268 270.258 147.054V208.745Z" fill="#2677BC"/>
<path opacity="0.6" d="M263.404 139.949H253.979C250.193 139.949 247.124 143.018 247.124 146.804V151.088C247.124 147.302 250.193 144.233 253.979 144.233H263.404C267.19 144.233 270.258 147.302 270.258 151.088V146.804C270.258 143.018 267.19 139.949 263.404 139.949Z" fill="#192442"/>
<path d="M272.634 210.331H249.294V148.091C249.294 144.271 252.39 141.175 256.209 141.175H265.718C269.538 141.175 272.634 144.271 272.634 148.091V210.331Z" stroke="#313031" stroke-width="4.32222" stroke-miterlimit="10" stroke-linecap="round" stroke-linejoin="round"/>
<path d="M241.683 68.6597V17.25L171.423 17.25V68.6597L241.683 68.6597Z" fill="white"/>
<path d="M241.683 68.6597V17.25L171.423 17.25V68.6597L241.683 68.6597Z" stroke="#313031" stroke-width="4.28414" stroke-miterlimit="10" stroke-linecap="round" stroke-linejoin="round"/>
<path d="M234.827 24.105H178.277V61.8054H234.827V24.105Z" fill="#C6C6C6"/>
<path d="M234.827 24.105H178.277V61.8054H234.827V24.105Z" stroke="#313031" stroke-width="2.57048" stroke-miterlimit="10" stroke-linecap="round" stroke-linejoin="round"/>
<path d="M188.444 54.247L197.42 38.7012L206.395 54.247H188.444Z" fill="#313031"/>
<path d="M188.444 54.247L197.42 38.7012L206.395 54.247H188.444Z" stroke="#313031" stroke-width="1.71366" stroke-miterlimit="10" stroke-linecap="round" stroke-linejoin="round"/>
<path d="M197.419 54.2462L207.879 36.1299L218.338 54.2462H197.419Z" fill="#2677BC"/>
<path d="M197.419 54.2462L207.879 36.1299L218.338 54.2462H197.419Z" stroke="#313031" stroke-width="1.71366" stroke-miterlimit="10" stroke-linecap="round" stroke-linejoin="round"/>
<path d="M222.338 38.7004C224.546 38.7004 226.336 36.9103 226.336 34.702C226.336 32.4938 224.546 30.7036 222.338 30.7036C220.129 30.7036 218.339 32.4938 218.339 34.702C218.339 36.9103 220.129 38.7004 222.338 38.7004Z" fill="#FFC857"/>
<path d="M222.338 38.7004C224.546 38.7004 226.336 36.9103 226.336 34.702C226.336 32.4938 224.546 30.7036 222.338 30.7036C220.129 30.7036 218.339 32.4938 218.339 34.702C218.339 36.9103 220.129 38.7004 222.338 38.7004Z" stroke="#313031" stroke-width="1.71366" stroke-miterlimit="10" stroke-linecap="round" stroke-linejoin="round"/>
<path d="M183.785 17.2502L206.071 2L228.349 17.2417" stroke="#313031" stroke-width="2.57048" stroke-miterlimit="10" stroke-linecap="round" stroke-linejoin="round"/>
<path d="M78.4472 157.086H52.981" stroke="#313031" stroke-width="4.28414" stroke-miterlimit="10" stroke-linecap="round" stroke-linejoin="round"/>
<path d="M52.981 191.359H78.4472" stroke="#313031" stroke-width="4.28414" stroke-miterlimit="10" stroke-linecap="round" stroke-linejoin="round"/>
<path d="M260.833 208.495H247.124V217.063H260.833V208.495Z" fill="#313031"/>
<path d="M260.833 208.495H247.124V217.063H260.833V208.495Z" stroke="#313031" stroke-width="4.28414" stroke-miterlimit="10" stroke-linecap="round" stroke-linejoin="round"/>
<path d="M169.903 208.495H156.194V217.063H169.903V208.495Z" fill="#313031"/>
<path d="M169.903 208.495H156.194V217.063H169.903V208.495Z" stroke="#313031" stroke-width="4.28414" stroke-miterlimit="10" stroke-linecap="round" stroke-linejoin="round"/>
<path d="M169.903 208.495H146.769V146.804C146.769 143.018 149.837 139.949 153.623 139.949H163.048C166.834 139.949 169.903 143.018 169.903 146.804V208.495Z" fill="#2677BC"/>
<path opacity="0.6" d="M163.048 139.949H153.623C149.837 139.949 146.769 143.018 146.769 146.804V151.088C146.769 147.302 149.837 144.233 153.623 144.233H163.048C166.834 144.233 169.903 147.302 169.903 151.088V146.804C169.903 143.018 166.834 139.949 163.048 139.949Z" fill="#16203C"/>
<path d="M169.903 208.495H146.769V146.804C146.769 143.018 149.837 139.949 153.623 139.949H163.048C166.834 139.949 169.903 143.018 169.903 146.804V208.495Z" stroke="#313031" stroke-width="4.28414" stroke-miterlimit="10" stroke-linecap="round" stroke-linejoin="round"/>
<path d="M170.01 190.073V169.331C170.01 164.934 173.575 161.37 177.971 161.37H239.164C243.56 161.37 247.125 164.934 247.125 169.331V190.073H170.01Z" fill="#2677BC"/>
<path opacity="0.6" d="M239.163 161.37H177.971C173.575 161.37 170.01 164.934 170.01 169.331V174.472C170.01 170.075 173.575 166.511 177.971 166.511H239.163C243.56 166.511 247.124 170.075 247.124 174.472V169.331C247.124 164.934 243.56 161.37 239.163 161.37Z" fill="#192442"/>
<path d="M170.01 190.073V169.331C170.01 164.934 173.575 161.37 177.971 161.37H239.164C243.56 161.37 247.125 164.934 247.125 169.331V190.073H170.01Z" stroke="#313031" stroke-width="4.28414" stroke-miterlimit="10" stroke-linecap="round" stroke-linejoin="round"/>
<path d="M247.125 206.353V190.073H170.011V206.353H247.125Z" fill="#FFC857"/>
<path d="M247.125 206.353V190.073H170.011V206.353H247.125Z" fill="#2677BC"/>
<path d="M247.125 195.214V190.073H170.011V195.214H247.125Z" fill="#283865"/>
<path d="M247.125 206.353V190.073H170.011V206.353H247.125Z" stroke="#313031" stroke-width="4.28414" stroke-miterlimit="10" stroke-linecap="round" stroke-linejoin="round"/>
<path opacity="0.69" d="M208.746 131.595C211.348 131.595 213.458 129.485 213.458 126.882C213.458 124.28 211.348 122.17 208.746 122.17C206.143 122.17 204.033 124.28 204.033 126.882C204.033 129.485 206.143 131.595 208.746 131.595Z" fill="white"/>
<path d="M208.746 131.595C211.348 131.595 213.458 129.485 213.458 126.882C213.458 124.28 211.348 122.17 208.746 122.17C206.143 122.17 204.033 124.28 204.033 126.882C204.033 129.485 206.143 131.595 208.746 131.595Z" stroke="#313031" stroke-width="2.57048" stroke-miterlimit="10" stroke-linecap="round" stroke-linejoin="round"/>
<path d="M3 217.064H280.434" stroke="#313031" stroke-width="4.28414" stroke-miterlimit="10" stroke-linecap="round" stroke-linejoin="round"/>
<path d="M113.02 237.875H146.947" stroke="#313031" stroke-width="4.28414" stroke-miterlimit="10" stroke-linecap="round" stroke-linejoin="round"/>
<path d="M98.1143 237.875H105.527" stroke="#313031" stroke-width="4.28414" stroke-miterlimit="10" stroke-linecap="round" stroke-linejoin="round"/>
<path d="M288.13 217.064H294" stroke="#313031" stroke-width="4.28414" stroke-miterlimit="10" stroke-linecap="round" stroke-linejoin="round"/>
<path d="M109.408 106.176C109.891 106.176 110.283 105.841 110.283 105.426C110.283 105.012 109.891 104.677 109.408 104.677C108.925 104.677 108.533 105.012 108.533 105.426C108.533 105.841 108.925 106.176 109.408 106.176Z" fill="#DBDBDB"/>
</svg>
