<svg width="219" height="264" viewBox="0 0 219 264" fill="none" xmlns="http://www.w3.org/2000/svg">
<path opacity="0.64" d="M218.5 241.03C218.5 242.372 217.827 243.737 216.425 245.118C215.021 246.499 212.925 247.855 210.18 249.161C204.693 251.774 196.721 254.14 186.829 256.132C167.055 260.114 139.715 262.58 109.5 262.58C79.2852 262.58 51.9449 260.114 32.1705 256.132C22.2792 254.14 14.3072 251.774 8.81998 249.161C6.07518 247.855 3.97874 246.499 2.57535 245.118C1.17295 243.737 0.5 242.372 0.5 241.03C0.5 239.688 1.17295 238.323 2.57535 236.943C3.97874 235.562 6.07518 234.205 8.81998 232.899C14.3072 230.286 22.2792 227.92 32.1705 225.928C51.9449 221.946 79.2852 219.48 109.5 219.48C139.715 219.48 167.055 221.946 186.829 225.928C196.721 227.92 204.693 230.286 210.18 232.899C212.925 234.205 215.021 235.562 216.425 236.943C217.827 238.323 218.5 239.688 218.5 241.03Z" fill="#1D2A4C" stroke="black"/>
<path d="M57.0114 237.457C58.5665 232.486 63.2596 229.806 70.8941 227.588C75.7572 226.175 81.8968 225.541 91.5088 223.592C96.1977 222.642 99.5034 220.814 99.5034 220.814V226.146C99.5034 226.146 67.5908 232.445 62.6253 240.699C60.2007 244.729 60.9473 254.651 72.3435 255.672C68.8631 256.181 63.1236 255.303 60.0456 252.184C56.2309 248.319 55.2217 243.18 57.0114 237.457Z" fill="#282323" stroke="black" stroke-width="2" stroke-miterlimit="10" stroke-linecap="round" stroke-linejoin="round"/>
<path d="M99.5035 226.147C99.5035 226.147 80.3977 229.686 70.2138 234.078C61.2649 237.938 61.5341 241.927 61.3073 246.027C61.1764 248.394 62.839 254.279 69.6423 255.284C77.7417 256.481 87.3099 255.201 99.5035 247.427C99.5035 228.409 99.5035 226.147 99.5035 226.147Z" fill="#442C2A"/>
<path opacity="0.37" d="M61.3073 246.026C61.4908 242.709 61.3515 239.464 66.0306 236.302C65.8239 237.447 65.7992 238.602 65.7349 239.766C65.604 242.133 71.3161 239.05 78.1198 240.055C85.2123 241.103 89.3819 249.219 99.5035 243.771C99.5035 244.917 99.5035 246.129 99.5035 247.426C87.3099 255.2 77.7417 256.48 69.6423 255.283C62.839 254.278 61.1764 248.393 61.3073 246.026Z" fill="#442C2A"/>
<path d="M99.5035 226.147C99.5035 226.147 80.3977 229.686 70.2138 234.078C61.2649 237.938 61.5341 241.927 61.3073 246.027C61.1764 248.394 62.839 254.279 69.6423 255.284C77.7417 256.481 87.3099 255.201 99.5035 247.427C99.5035 228.409 99.5035 226.147 99.5035 226.147Z" stroke="black" stroke-width="2" stroke-miterlimit="10" stroke-linecap="round" stroke-linejoin="round"/>
<path d="M81.8292 237.102C80.2975 237.943 80.671 246.069 84.3949 247.206" stroke="black" stroke-width="2" stroke-miterlimit="10" stroke-linecap="round" stroke-linejoin="round"/>
<path d="M87.6432 236.513C86.0509 238.754 87.1943 243.992 89.9951 245.307" stroke="black" stroke-width="2" stroke-miterlimit="10" stroke-linecap="round" stroke-linejoin="round"/>
<path d="M92.9928 234.65C91.4005 236.891 92.5439 242.128 95.3447 243.444" stroke="black" stroke-width="2" stroke-miterlimit="10" stroke-linecap="round" stroke-linejoin="round"/>
<path d="M147.964 210.514C137.914 217.492 123.594 221.495 108.676 221.495C93.759 221.495 79.4394 217.492 69.3891 210.514C64.7734 207.309 57.0308 200.597 57.0308 191.656C57.0308 182.714 64.7738 176.003 69.3891 172.798C79.4394 165.819 93.759 161.816 108.676 161.816C123.594 161.816 137.914 165.819 147.964 172.798C152.58 176.003 160.323 182.714 160.323 191.656C160.323 200.597 152.58 207.309 147.964 210.514Z" fill="#151E28"/>
<path d="M193.989 199.082C193.808 199.999 193.593 200.912 193.347 201.815C186.1 228.329 151.059 248.434 108.925 248.434C66.6796 248.434 31.5642 228.222 24.4433 201.611C24.243 200.865 24.0661 200.12 23.917 199.366C23.7168 197.987 23.7587 196.59 24.0661 195.198C25.8032 187.387 35.3086 182.861 45.2937 185.082C51.8603 186.544 57.0065 190.559 59.2606 195.361C59.5075 196.404 59.8475 197.41 60.262 198.374C62.6651 203.953 67.5458 208.154 70.8105 210.497C80.5628 217.473 94.4506 221.478 108.925 221.478C123.395 221.478 137.288 217.473 147.035 210.497C150.319 208.14 155.237 203.902 157.626 198.276C158.008 197.372 158.324 196.436 158.562 195.463C160.788 190.62 165.953 186.554 172.571 185.082C182.56 182.861 192.061 187.387 193.798 195.198C194.088 196.492 194.143 197.796 193.989 199.082Z" fill="#2A3749"/>
<path opacity="0.67" d="M193.799 195.198C193.75 194.981 193.693 194.767 193.633 194.554C193.473 195.315 193.296 196.074 193.091 196.825C185.844 223.339 150.803 243.444 108.669 243.444C66.4237 243.444 31.3083 223.232 24.1874 196.621C24.1101 196.333 24.0398 196.045 23.9695 195.757C23.7646 196.964 23.7441 198.172 23.9173 199.366C24.0664 200.12 24.2433 200.866 24.4436 201.611C31.5645 228.222 66.6799 248.434 108.926 248.434C151.059 248.434 186.1 228.329 193.347 201.816C193.594 200.912 193.808 199.999 193.99 199.082C194.143 197.797 194.087 196.493 193.799 195.198Z" fill="#151E28"/>
<path d="M193.989 199.082C193.808 199.999 193.593 200.912 193.347 201.815C186.1 228.329 151.059 248.434 108.925 248.434C66.6796 248.434 31.5642 228.222 24.4433 201.611C24.243 200.865 24.0661 200.12 23.917 199.366C23.7168 197.987 23.7587 196.59 24.0661 195.198C25.8032 187.387 35.3086 182.861 45.2937 185.082C51.8603 186.544 57.0065 190.559 59.2606 195.361C59.5075 196.404 59.8475 197.41 60.262 198.374C62.6651 203.953 67.5458 208.154 70.8105 210.497C80.5628 217.473 94.4506 221.478 108.925 221.478C123.395 221.478 137.288 217.473 147.035 210.497C150.319 208.14 155.237 203.902 157.626 198.276C158.008 197.372 158.324 196.436 158.562 195.463C160.788 190.62 165.953 186.554 172.571 185.082C182.56 182.861 192.061 187.387 193.798 195.198C194.088 196.492 194.143 197.796 193.989 199.082Z" stroke="black" stroke-width="2" stroke-miterlimit="10" stroke-linecap="round" stroke-linejoin="round"/>
<path d="M109.499 207.32C132.687 207.32 151.484 200.932 151.484 193.053C151.484 185.174 132.687 178.786 109.499 178.786C86.3122 178.786 67.5151 185.174 67.5151 193.053C67.5151 200.932 86.3122 207.32 109.499 207.32Z" fill="#1D2A4C"/>
<path d="M109.499 207.32C132.687 207.32 151.484 200.932 151.484 193.053C151.484 185.174 132.687 178.786 109.499 178.786C86.3122 178.786 67.5151 185.174 67.5151 193.053C67.5151 200.932 86.3122 207.32 109.499 207.32Z" stroke="black" stroke-width="2" stroke-miterlimit="10" stroke-linecap="round" stroke-linejoin="round"/>
<path d="M157.282 161.949H60.5637C53.1689 161.949 47.4475 155.469 48.3636 148.131L52.6371 113.91C53.8563 104.146 62.1555 96.8186 71.9948 96.8186H145.851C155.691 96.8186 163.99 104.146 165.209 113.91L169.482 148.131C170.398 155.469 164.677 161.949 157.282 161.949Z" fill="#F1534D"/>
<path d="M157.282 161.949H60.5637C53.1689 161.949 47.4475 155.469 48.3636 148.131L52.6371 113.91C53.8563 104.146 62.1555 96.8186 71.9948 96.8186H145.851C155.691 96.8186 163.99 104.146 165.209 113.91L169.482 148.131C170.398 155.469 164.677 161.949 157.282 161.949Z" stroke="black" stroke-width="2" stroke-miterlimit="10" stroke-linecap="round" stroke-linejoin="round"/>
<path d="M71.0622 125.722L70.1392 137.381" stroke="black" stroke-width="2" stroke-miterlimit="10" stroke-linecap="round" stroke-linejoin="round"/>
<path d="M147.472 125.722L148.395 137.381" stroke="black" stroke-width="2" stroke-miterlimit="10" stroke-linecap="round" stroke-linejoin="round"/>
<path d="M157.282 161.949H60.5637C53.1689 161.949 47.4475 155.469 48.3636 148.131L52.6371 113.91C53.8563 104.146 62.1555 96.8186 71.9948 96.8186H145.851C155.691 96.8186 163.99 104.146 165.209 113.91L169.482 148.131C170.398 155.469 164.677 161.949 157.282 161.949Z" fill="#1D2A4C"/>
<g opacity="0.24">
<path d="M52.6378 117.524C53.857 107.76 62.1562 100.433 71.9955 100.433H145.852C155.691 100.433 163.99 107.76 165.21 117.524L169.448 151.465C169.607 150.388 169.625 149.27 169.483 148.131L165.209 113.91C163.99 104.146 155.691 96.8186 145.852 96.8186H71.996C62.1567 96.8186 53.8575 104.146 52.6382 113.91L48.3648 148.131C48.2227 149.27 48.2409 150.388 48.3997 151.465L52.6378 117.524Z" fill="black"/>
<path d="M76.2941 100.433C76.2941 100.433 82.0169 101.436 82.5105 104.63C82.9027 107.169 82.837 108.885 83.836 109.884C84.8349 110.883 87.117 112.986 91.7174 112.986C89.1424 110.411 89.0916 101.436 88.4219 101.436C87.7522 101.436 86.0901 96.9714 86.0901 96.9714L83.836 95.9487C83.836 95.9487 75.5904 96.9808 76.2941 100.433Z" fill="black"/>
<path d="M137.457 100.433C137.457 100.433 131.734 101.436 131.24 104.63C130.848 107.169 130.914 108.885 129.915 109.884C128.915 110.883 126.634 112.986 122.033 112.986C124.608 110.411 124.659 101.436 125.329 101.436C125.998 101.436 127.661 96.9714 127.661 96.9714L129.915 95.9487C129.915 95.9487 138.16 96.9808 137.457 100.433Z" fill="black"/>
</g>
<path d="M157.282 161.949H60.5637C53.1689 161.949 47.4475 155.469 48.3636 148.131L52.6371 113.91C53.8563 104.146 62.1555 96.8186 71.9948 96.8186H145.851C155.691 96.8186 163.99 104.146 165.209 113.91L169.482 148.131C170.398 155.469 164.677 161.949 157.282 161.949Z" stroke="black" stroke-width="2" stroke-miterlimit="10" stroke-linecap="round" stroke-linejoin="round"/>
<path d="M71.0622 125.723L70.1392 137.382" stroke="black" stroke-width="2" stroke-miterlimit="10" stroke-linecap="round" stroke-linejoin="round"/>
<path d="M147.472 125.723L148.395 137.382" stroke="black" stroke-width="2" stroke-miterlimit="10" stroke-linecap="round" stroke-linejoin="round"/>
<path d="M96.4875 77.3131L81.1606 76.5098L74.0029 77.3131C74.0029 77.3131 69.1841 80.8908 69.1841 81.8786C69.1841 82.8664 69.6573 90.84 69.6573 90.84C69.6573 90.84 80.978 92.355 82.1721 93.5487C83.3662 94.7423 90.57 101.435 90.57 101.435L97.5256 98.7363L101.159 89.0498L96.4875 77.3131Z" fill="#05102B"/>
<path d="M93.7941 71.3828H76.1172C68.9749 71.3828 63.1846 77.1731 63.1846 84.3154C63.1846 91.4578 68.9749 97.2481 76.1172 97.2481H78.4463C82.1995 97.2481 85.2425 100.291 85.2425 104.044V104.752C85.2425 109.277 88.911 112.946 93.4369 112.946V104.563C93.5412 104.563 93.6255 104.647 93.6255 104.751V104.043C93.6255 95.6739 86.8162 88.8646 78.4467 88.8646H76.1177C73.6088 88.8646 71.568 86.8233 71.568 84.3145C71.568 81.8057 73.6088 79.7649 76.1177 79.7649H93.7946L93.7941 71.3828Z" fill="#1D2A4C"/>
<path d="M92.6946 98.8087C90.5574 93.0109 84.9771 88.8655 78.4463 88.8655H76.1172C73.6084 88.8655 71.5676 86.8243 71.5676 84.3154C71.5676 81.8066 73.6084 79.7658 76.1172 79.7658H93.7941V71.3828H76.1172C68.9749 71.3828 63.1846 77.1731 63.1846 84.3154C63.1846 91.4577 68.9749 97.2481 76.1172 97.2481H78.4463C82.1995 97.2481 85.2425 100.291 85.2425 104.044V104.752C85.2425 109.277 88.911 112.946 93.4369 112.946" stroke="black" stroke-width="2" stroke-miterlimit="10" stroke-linecap="round" stroke-linejoin="round"/>
<path d="M116.763 77.3131L132.09 76.5098L139.248 77.3131C139.248 77.3131 144.067 80.8908 144.067 81.8786C144.067 82.8664 143.594 90.84 143.594 90.84C143.594 90.84 132.273 92.355 131.079 93.5487C129.885 94.7428 122.681 101.435 122.681 101.435L115.725 98.7363L112.092 89.0498L116.763 77.3131Z" fill="#05102A"/>
<path d="M119.455 71.3828H137.132C144.274 71.3828 150.065 77.1731 150.065 84.3154C150.065 91.4578 144.274 97.2481 137.132 97.2481H134.803C131.05 97.2481 128.007 100.291 128.007 104.044V104.752C128.007 109.277 124.338 112.946 119.813 112.946V104.563C119.708 104.563 119.624 104.647 119.624 104.751V104.043C119.624 95.6739 126.433 88.8646 134.803 88.8646H137.132C139.641 88.8646 141.682 86.8233 141.682 84.3145C141.682 81.8057 139.641 79.7649 137.132 79.7649H119.455V71.3828Z" fill="#1D2A4C"/>
<path d="M120.555 98.8087C122.692 93.0109 128.272 88.8655 134.803 88.8655H137.132C139.641 88.8655 141.682 86.8243 141.682 84.3154C141.682 81.8066 139.641 79.7658 137.132 79.7658H119.455V71.3828H137.132C144.274 71.3828 150.065 77.1731 150.065 84.3154C150.065 91.4577 144.274 97.2481 137.132 97.2481H134.803C131.05 97.2481 128.007 100.291 128.007 104.044V104.752C128.007 109.277 124.338 112.946 119.813 112.946" stroke="black" stroke-width="2" stroke-miterlimit="10" stroke-linecap="round" stroke-linejoin="round"/>
<path d="M107.488 106.353C117.52 106.353 125.651 98.2212 125.651 88.19C125.651 78.1588 117.52 70.0269 107.488 70.0269C97.4571 70.0269 89.3252 78.1588 89.3252 88.19C89.3252 98.2212 97.4571 106.353 107.488 106.353Z" fill="#2D3D67"/>
<path d="M90.1216 82.8584C95.1351 86.0878 101.094 87.9702 107.488 87.9702C113.882 87.9702 119.841 86.0873 124.854 82.8584C122.576 75.4292 115.664 70.0273 107.488 70.0273C99.3121 70.0269 92.3999 75.4292 90.1216 82.8584Z" fill="#05102A"/>
<path d="M107.488 106.353C117.52 106.353 125.651 98.2212 125.651 88.19C125.651 78.1588 117.52 70.0269 107.488 70.0269C97.4571 70.0269 89.3252 78.1588 89.3252 88.19C89.3252 98.2212 97.4571 106.353 107.488 106.353Z" stroke="black" stroke-width="2" stroke-miterlimit="10" stroke-linecap="round" stroke-linejoin="round"/>
<path d="M107.488 98.7367C101.572 98.7367 96.7769 93.9411 96.7769 88.0251V79.9951C96.7769 78.5141 97.9775 77.3135 99.4585 77.3135H115.519C117 77.3135 118.201 78.5141 118.201 79.9951V88.0251C118.2 93.9411 113.405 98.7367 107.488 98.7367Z" fill="#FFC897"/>
<path d="M115.519 77.3135H99.4585C97.9775 77.3135 96.7769 78.6021 96.7769 80.1921V86.7769C100.13 88.0521 103.734 88.753 107.488 88.753C111.243 88.753 114.847 88.0521 118.2 86.7769V80.1921C118.201 78.6026 117 77.3135 115.519 77.3135Z" fill="#E5A973"/>
<path d="M107.488 98.7367C101.572 98.7367 96.7769 93.9411 96.7769 88.0251V79.9951C96.7769 78.5141 97.9775 77.3135 99.4585 77.3135H115.519C117 77.3135 118.201 78.5141 118.201 79.9951V88.0251C118.2 93.9411 113.405 98.7367 107.488 98.7367Z" stroke="black" stroke-width="2" stroke-miterlimit="10" stroke-linecap="round" stroke-linejoin="round"/>
<path d="M119.086 219.405H109.098V251.222H119.086V219.405Z" fill="#607691"/>
<path d="M119.086 219.405H109.098V251.222H119.086V219.405Z" stroke="black" stroke-width="2" stroke-miterlimit="10" stroke-linecap="round" stroke-linejoin="round"/>
<path d="M60.2625 198.375C59.848 197.41 59.5081 196.405 59.2612 195.361C59.7218 196.339 60.0618 197.345 60.2625 198.375Z" stroke="black" stroke-width="2" stroke-miterlimit="10" stroke-linecap="round" stroke-linejoin="round"/>
<path d="M157.626 198.277C157.822 197.317 158.138 196.377 158.562 195.464C158.325 196.437 158.007 197.373 157.626 198.277Z" stroke="black" stroke-width="2" stroke-miterlimit="10" stroke-linecap="round" stroke-linejoin="round"/>
<path d="M157.473 196.018H60.374C56.9072 196.018 53.9806 193.441 53.541 190.002L47.4819 142.604C46.9557 138.486 50.164 134.841 54.315 134.841H163.532C167.684 134.841 170.892 138.486 170.365 142.604L164.306 190.002C163.867 193.441 160.94 196.018 157.473 196.018Z" fill="#B5B5B5"/>
<path opacity="0.21" d="M164.306 187.044C163.866 190.483 160.94 193.059 157.473 193.059H60.3736C56.9068 193.059 53.9802 190.483 53.5406 187.044L47.5686 140.327C47.4177 141.054 47.3814 141.82 47.4815 142.603L53.5406 190.001C53.9802 193.44 56.9068 196.017 60.3736 196.017H157.472C160.939 196.017 163.866 193.44 164.305 190.001L170.365 142.603C170.465 141.819 170.428 141.054 170.277 140.327L164.306 187.044Z" fill="#7E7E7E"/>
<path opacity="0.21" d="M47.5388 143.05C48.1102 139.867 50.8878 137.381 54.315 137.381H163.532C166.959 137.381 169.737 139.867 170.309 143.05L170.366 142.604C170.892 138.486 167.684 134.841 163.533 134.841H54.315C50.1636 134.841 46.9557 138.486 47.4819 142.604L47.5388 143.05Z" fill="#7E7E7E"/>
<path d="M157.473 196.018H60.374C56.9072 196.018 53.9806 193.441 53.541 190.002L47.4819 142.604C46.9557 138.486 50.164 134.841 54.315 134.841H163.532C167.684 134.841 170.892 138.486 170.365 142.604L164.306 190.002C163.867 193.441 160.94 196.018 157.473 196.018Z" stroke="black" stroke-width="2" stroke-miterlimit="10" stroke-linecap="round" stroke-linejoin="round"/>
<path opacity="0.66" d="M113.546 162.519C111.471 162.519 109.789 160.837 109.789 158.762C109.789 158.617 109.799 158.476 109.814 158.336C109.445 158.267 109.066 158.227 108.677 158.227C105.257 158.227 102.485 160.999 102.485 164.418C102.485 167.838 105.258 170.61 108.677 170.61C112.096 170.61 114.869 167.838 114.869 164.418C114.869 163.705 114.742 163.023 114.521 162.386C114.209 162.47 113.884 162.519 113.546 162.519Z" fill="#B5B5B5"/>
<path d="M161.578 237.457C160.023 232.486 155.33 229.806 147.696 227.588C142.833 226.175 136.693 225.541 127.081 223.592C122.392 222.642 119.086 220.814 119.086 220.814V226.146C119.086 226.146 150.999 232.445 155.965 240.699C158.389 244.729 157.643 254.651 146.246 255.672C149.727 256.181 155.466 255.303 158.544 252.184C162.359 248.319 163.368 243.18 161.578 237.457Z" fill="#282323" stroke="black" stroke-width="2" stroke-miterlimit="10" stroke-linecap="round" stroke-linejoin="round"/>
<path d="M119.086 226.147C119.086 226.147 138.192 229.686 148.376 234.078C157.325 237.938 157.056 241.927 157.283 246.027C157.413 248.394 155.751 254.279 148.948 255.284C140.848 256.481 131.28 255.201 119.086 247.427C119.086 228.409 119.086 226.147 119.086 226.147Z" fill="#442C2A"/>
<path opacity="0.37" d="M157.283 246.026C157.099 242.709 157.238 239.464 152.559 236.302C152.766 237.447 152.791 238.602 152.855 239.766C152.986 242.133 151.323 248.018 144.52 249.023C137.427 250.071 129.208 249.219 119.086 243.771C119.086 244.917 119.086 246.129 119.086 247.426C131.28 255.2 140.848 256.48 148.948 255.283C155.751 254.278 157.413 248.393 157.283 246.026Z" fill="#442C2A"/>
<path d="M119.086 226.147C119.086 226.147 138.192 229.686 148.376 234.078C157.325 237.938 157.056 241.927 157.283 246.027C157.413 248.394 155.751 254.279 148.948 255.284C140.848 256.481 131.28 255.201 119.086 247.427C119.086 228.409 119.086 226.147 119.086 226.147Z" stroke="black" stroke-width="2" stroke-miterlimit="10" stroke-linecap="round" stroke-linejoin="round"/>
<path d="M136.759 237.102C138.291 237.943 137.918 246.069 134.194 247.206" stroke="black" stroke-width="2" stroke-miterlimit="10" stroke-linecap="round" stroke-linejoin="round"/>
<path d="M130.946 236.513C132.538 238.754 131.395 243.992 128.594 245.307" stroke="black" stroke-width="2" stroke-miterlimit="10" stroke-linecap="round" stroke-linejoin="round"/>
<path d="M125.597 234.65C127.189 236.891 126.046 242.128 123.245 243.444" stroke="black" stroke-width="2" stroke-miterlimit="10" stroke-linecap="round" stroke-linejoin="round"/>
<path d="M91.1177 108.246V132.998" stroke="black" stroke-width="2" stroke-miterlimit="10" stroke-linecap="round" stroke-linejoin="round"/>
<path d="M122.563 108.246V125.723" stroke="black" stroke-width="2" stroke-miterlimit="10" stroke-linecap="round" stroke-linejoin="round"/>
<path d="M122.563 130.971C124.704 130.971 126.441 129.235 126.441 127.093C126.441 124.951 124.704 123.215 122.563 123.215C120.421 123.215 118.685 124.951 118.685 127.093C118.685 129.235 120.421 130.971 122.563 130.971Z" fill="black"/>
<path d="M122.563 128.189C123.425 128.189 124.124 127.49 124.124 126.627C124.124 125.765 123.425 125.066 122.563 125.066C121.7 125.066 121.001 125.765 121.001 126.627C121.001 127.49 121.7 128.189 122.563 128.189Z" fill="#7E7E7E"/>
<path d="M107.488 85.1761C91.2648 85.1761 78.1133 72.0246 78.1133 55.8016V21.6931H136.863V55.8016C136.863 72.0246 123.712 85.1761 107.488 85.1761Z" fill="#FFC897"/>
<path d="M107.488 81.1122C91.2648 81.1122 78.1133 67.9607 78.1133 51.7378V55.8017C78.1133 72.0251 91.2648 85.1761 107.488 85.1761C123.711 85.1761 136.862 72.0246 136.862 55.8017V51.7378C136.863 67.9607 123.712 81.1122 107.488 81.1122Z" fill="#E5A973"/>
<path d="M107.488 85.1761C91.2648 85.1761 78.1133 72.0246 78.1133 55.8016V21.6931H136.863V55.8016C136.863 72.0246 123.712 85.1761 107.488 85.1761Z" stroke="black" stroke-width="2" stroke-miterlimit="10" stroke-linecap="round" stroke-linejoin="round"/>
<path d="M137.115 25.0958C137.023 23.4952 136.938 21.8936 136.863 20.291C117.283 21.2155 97.6616 21.0706 78.1208 19.3684C77.9918 21.1801 77.8721 22.9926 77.7627 24.8066C78.6578 25.6147 79.5594 26.4157 80.4667 27.2093C81.23 27.5903 82.2094 28.1053 83.0696 28.5506C86.9821 30.5914 92.4413 33.2222 97.6332 34.21C99.5524 34.5803 101.562 34.7582 103.597 34.7442C112.415 34.6627 119.809 31.1568 122.925 29.7098C123.385 29.4946 123.782 29.3083 123.99 29.2235C124.184 29.1444 124.386 29.1034 124.622 29.0931C125.168 29.0708 125.838 29.2138 126.615 29.3758C127.658 29.5938 128.843 29.835 130.185 29.7619C131.72 29.679 133.14 29.1956 134.464 28.3117C135.35 27.2363 136.234 26.1642 137.115 25.0958Z" fill="#E5A973"/>
<path d="M122.92 7.39298C122.92 7.39298 99.4077 -8.12394 79.9307 9.19112C76.3209 12.4004 74.8516 16.998 74.8516 21.2645V43.7342H78.1144V27.4306C78.1144 26.2431 78.9383 25.2804 79.9545 25.2804C81.6162 25.2804 90.714 30.1276 98.3793 31.4629C109.964 33.4808 120.57 28.0952 122.811 27.297C126.709 25.9087 129.899 30.727 134.85 25.2804H135.024C136.04 25.2804 136.864 26.2431 136.864 27.4306V43.7342H140.127V21.3721C140.126 15.9385 133.783 2.13451 122.92 7.39298Z" fill="#231A17"/>
<g opacity="0.34">
<path d="M78.1144 40.6807H74.8516V43.7344H78.1144V40.6807Z" fill="#231A17"/>
<path d="M140.126 40.6804H136.863V43.7342H140.126V40.6804Z" fill="#231A17"/>
</g>
<path d="M122.92 7.39298C122.92 7.39298 99.4077 -8.12394 79.9307 9.19112C76.3209 12.4004 74.8516 16.998 74.8516 21.2645V43.7342H78.1144V27.4306C78.1144 26.2431 78.9383 25.2804 79.9545 25.2804C81.6162 25.2804 90.714 30.1276 98.3793 31.4629C109.964 33.4808 120.57 28.0952 122.811 27.297C126.709 25.9087 129.899 30.727 134.85 25.2804H135.024C136.04 25.2804 136.864 26.2431 136.864 27.4306V43.7342H140.127V21.3721C140.126 15.9385 133.783 2.13451 122.92 7.39298Z" stroke="black" stroke-width="2" stroke-miterlimit="10" stroke-linecap="round" stroke-linejoin="round"/>
<path d="M103.066 22.5307C103.066 22.5307 77.8288 24.1691 72.4502 10.7615" stroke="black" stroke-width="2" stroke-miterlimit="10" stroke-linecap="round" stroke-linejoin="round"/>
<path d="M106.626 19.3127C106.626 19.3127 82.2992 17.7572 75.9658 4.37842" stroke="black" stroke-width="2" stroke-miterlimit="10" stroke-linecap="round" stroke-linejoin="round"/>
<path d="M136.863 40.105V55.3657C140.109 55.3657 142.74 51.9497 142.74 47.7354C142.74 43.5215 140.109 40.105 136.863 40.105Z" fill="#FFC897"/>
<path d="M136.863 40.9541V54.5173C138.757 53.2506 140.054 50.6923 140.054 47.7359C140.054 44.7791 138.757 42.2209 136.863 40.9541Z" fill="#E5A973"/>
<path d="M136.863 40.105V55.3657C140.109 55.3657 142.74 51.9497 142.74 47.7354C142.74 43.5215 140.109 40.105 136.863 40.105Z" stroke="black" stroke-width="2" stroke-miterlimit="10" stroke-linecap="round" stroke-linejoin="round"/>
<path d="M78.1133 40.105V55.3657C74.8677 55.3657 72.2363 51.9497 72.2363 47.7354C72.2368 43.5215 74.8677 40.105 78.1133 40.105Z" fill="#FFC897"/>
<path d="M78.1136 41.2151C76.4161 42.5531 75.2778 44.9683 75.2778 47.7352C75.2778 50.502 76.4161 52.9177 78.1136 54.2553V41.2151Z" fill="#E5A973"/>
<path d="M78.1133 40.105V55.3657C74.8677 55.3657 72.2363 51.9497 72.2363 47.7354C72.2368 43.5215 74.8677 40.105 78.1133 40.105Z" stroke="black" stroke-width="2" stroke-miterlimit="10" stroke-linecap="round" stroke-linejoin="round"/>
<path d="M106.283 52.531L104.326 58.9258C104.326 59.6216 106.624 59.0558 108.922 59.6212" stroke="black" stroke-width="2" stroke-miterlimit="10" stroke-linecap="round" stroke-linejoin="round"/>
<path d="M117.274 64.447C117.99 69.2975 111.752 73.5887 106.852 72.6992" stroke="black" stroke-width="2" stroke-miterlimit="10" stroke-linecap="round" stroke-linejoin="round"/>
<path d="M96.8838 47.1204C97.9636 47.1204 98.8389 46.1816 98.8389 45.0237C98.8389 43.8657 97.9636 42.927 96.8838 42.927C95.804 42.927 94.9287 43.8657 94.9287 45.0237C94.9287 46.1816 95.804 47.1204 96.8838 47.1204Z" stroke="black" stroke-width="2" stroke-miterlimit="10" stroke-linecap="round" stroke-linejoin="round"/>
<path d="M96.8838 47.1204C97.9636 47.1204 98.8389 46.1816 98.8389 45.0237C98.8389 43.8657 97.9636 42.927 96.8838 42.927C95.804 42.927 94.9287 43.8657 94.9287 45.0237C94.9287 46.1816 95.804 47.1204 96.8838 47.1204Z" fill="black"/>
<path d="M90.1299 40.6061C91.1107 39.4464 93.4067 38.6333 96.0827 38.6333C98.2101 38.6333 100.097 39.1474 101.275 39.9406" stroke="black" stroke-width="2" stroke-miterlimit="10" stroke-linecap="round" stroke-linejoin="round"/>
<path d="M118.33 47.1204C119.41 47.1204 120.285 46.1816 120.285 45.0237C120.285 43.8657 119.41 42.927 118.33 42.927C117.25 42.927 116.375 43.8657 116.375 45.0237C116.375 46.1816 117.25 47.1204 118.33 47.1204Z" stroke="black" stroke-width="2" stroke-miterlimit="10" stroke-linecap="round" stroke-linejoin="round"/>
<path d="M118.33 47.1204C119.41 47.1204 120.285 46.1816 120.285 45.0237C120.285 43.8657 119.41 42.927 118.33 42.927C117.25 42.927 116.375 43.8657 116.375 45.0237C116.375 46.1816 117.25 47.1204 118.33 47.1204Z" fill="black"/>
<path d="M125.084 40.6061C124.103 39.4464 121.807 38.6333 119.131 38.6333C117.004 38.6333 115.117 39.1474 113.939 39.9406" stroke="black" stroke-width="2" stroke-miterlimit="10" stroke-linecap="round" stroke-linejoin="round"/>
</svg>
