<svg width="37" height="37" viewBox="0 0 37 37" fill="none" xmlns="http://www.w3.org/2000/svg">
<path d="M24.6404 13.3997C24.6404 14.0119 24.1472 14.5056 23.5357 14.5056C22.9241 14.5056 22.4309 14.0069 22.4309 13.3997C22.4309 12.7924 22.929 12.2937 23.5357 12.2937C24.1423 12.2937 24.6404 12.7924 24.6404 13.3997ZM23.2644 18.3666C23.2644 20.934 21.1782 23.0224 18.6135 23.0224C16.0489 23.0224 13.9627 20.934 13.9627 18.3666C13.9627 15.7992 16.0489 13.7107 18.6135 13.7107C21.1782 13.7107 23.2644 15.7992 23.2644 18.3666ZM21.5925 18.3666C21.5925 16.7225 20.2559 15.3845 18.6135 15.3845C16.9712 15.3845 15.6346 16.7225 15.6346 18.3666C15.6346 20.0107 16.9712 21.3487 18.6135 21.3487C20.2559 21.3487 21.5925 20.0107 21.5925 18.3666ZM28.0238 14.629C28.0238 11.4939 25.4838 8.95117 22.352 8.95117H14.6137C11.4819 8.95117 8.94189 11.4939 8.94189 14.629V22.3756C8.94189 25.5108 11.4819 28.0535 14.6137 28.0535H22.352C25.4838 28.0535 28.0238 25.5108 28.0238 22.3756V14.629ZM26.1595 22.2917C26.1595 24.4444 24.4135 26.1922 22.2632 26.1922H14.6926C12.5422 26.1922 10.7963 24.4444 10.7963 22.2917V14.713C10.7963 12.5603 12.5422 10.8125 14.6926 10.8125H22.2632C24.4135 10.8125 26.1595 12.5603 26.1595 14.713V22.2917Z" fill="#1D2A4C"/>
<path d="M18.4802 0C8.29068 0 0 8.29957 0 18.5C0 28.7004 8.29068 37 18.4802 37C28.6697 37 36.9603 28.7004 36.9603 18.5C36.9603 8.29957 28.6697 0 18.4802 0ZM18.4802 34.6252C9.59765 34.6252 2.37229 27.392 2.37229 18.5C2.37229 9.60795 9.59765 2.37483 18.4802 2.37483C27.3627 2.37483 34.593 9.60795 34.593 18.5C34.593 27.392 27.3676 34.6252 18.4802 34.6252Z" fill="#1D2A4C"/>
</svg>
