<svg width="12" height="13" viewBox="0 0 12 13" fill="none" xmlns="http://www.w3.org/2000/svg">
<path d="M0 3.74922C0 2.71668 0.3803 1.83953 1.13062 1.10271C1.88608 0.3659 2.79572 0 3.85953 0H12V3.34322H3.85953C3.74133 3.34322 3.63854 3.38332 3.55632 3.46352C3.47923 3.53871 3.43812 3.63394 3.43298 3.74421H0V3.74922Z" fill="white"/>
<path d="M0 4.21548V4.20044H3.42784C3.42784 4.20044 3.42784 4.21046 3.42784 4.21548C3.42784 4.33076 3.46895 4.43101 3.55118 4.5112C3.6334 4.5914 3.73619 4.6315 3.85439 4.6315H8.14047C9.20428 4.6315 10.1139 4.9974 10.8642 5.73421C11.6248 6.47604 12.0051 7.37324 11.9949 8.42082H8.56702C8.56702 8.4108 8.56702 8.40077 8.56702 8.39075C8.56702 8.27546 8.52591 8.17522 8.44368 8.09502C8.36146 8.01482 8.25867 7.97472 8.14047 7.97472H3.85953C2.79572 7.97472 1.88608 7.60882 1.13576 6.87201C0.488223 6.24547 0.118201 5.50866 0.0256959 4.66157C0.0102784 4.51622 0 4.36585 0 4.21548Z" fill="white"/>
<path d="M0 12.6159V9.27267H8.14047C8.25867 9.27267 8.36146 9.23257 8.44368 9.15237C8.52077 9.07719 8.56188 8.98697 8.56702 8.88672H11.9949C11.9949 9.02205 11.9846 9.15739 11.9743 9.28771C11.8818 10.1398 11.5118 10.8866 10.8642 11.5182C10.1088 12.255 9.20428 12.6209 8.14047 12.6209H0V12.6159Z" fill="white"/>
</svg>
