<svg width="105" height="57" viewBox="0 0 105 57" fill="none" xmlns="http://www.w3.org/2000/svg">
<path d="M96.4929 34.6581H87.7526C87.3771 34.6581 87.0728 34.3537 87.0728 33.9783V18.5045C87.0728 18.1291 87.3771 17.8247 87.7526 17.8247H96.4929C96.8683 17.8247 97.1727 18.1291 97.1727 18.5045V33.9783C97.1727 34.3537 96.8683 34.6581 96.4929 34.6581Z" fill="#F8F8F8"/>
<path opacity="0.81" d="M89.8159 31.9117L92.763 34.6578H96.4931C96.8686 34.6578 97.173 34.3534 97.173 33.978V28.8479L94.4929 27.2622L89.8159 31.9117Z" fill="#C1C1C1"/>
<path opacity="0.85" d="M93.813 25.3922H90.3097C89.9343 25.3922 89.6299 25.0878 89.6299 24.7124V21.2091C89.6299 20.8337 89.9343 20.5293 90.3097 20.5293H93.813C94.1884 20.5293 94.4928 20.8337 94.4928 21.2091V24.7124C94.4928 25.0878 94.1884 25.3922 93.813 25.3922Z" fill="#DDDDDD"/>
<path d="M94.3228 32.1251H90.8195C90.444 32.1251 90.1396 31.8207 90.1396 31.4453V27.942C90.1396 27.5666 90.444 27.2622 90.8195 27.2622H94.3228C94.6982 27.2622 95.0026 27.5666 95.0026 27.942V31.4453C95.0026 31.8207 94.6982 32.1251 94.3228 32.1251Z" fill="#030303"/>
<path d="M92.4627 30.6133V37.5976C92.4627 38.7081 93.363 39.6085 94.4736 39.6085H96.7978C97.9084 39.6085 98.8087 40.5088 98.8087 41.6194C98.8087 42.7299 97.9084 43.6303 96.7978 43.6303H71.3564" stroke="black" stroke-width="2.6878" stroke-miterlimit="10" stroke-linecap="round" stroke-linejoin="round"/>
<path d="M99.8846 52.237H5.94023C4.92152 52.237 4.0957 51.4112 4.0957 50.3925V46.2259C4.0957 45.2072 4.92152 44.3813 5.94023 44.3813H99.8846C100.903 44.3813 101.729 45.2072 101.729 46.2259V50.3925C101.729 51.4112 100.903 52.237 99.8846 52.237Z" fill="#D17F4D"/>
<path d="M60.8228 55.0528C57.9861 50.1898 65.0935 44.7824 72.5127 43.9331" stroke="#C57442" stroke-width="2.01585" stroke-miterlimit="10" stroke-linecap="round" stroke-linejoin="round"/>
<path d="M46.1719 52.2353C46.6982 51.7068 47.8983 50.6643 49.6633 50.4273C50.2364 50.3504 51.0742 50.2378 51.9701 50.6767C53.2257 51.2917 53.6734 52.5382 53.7781 52.8587" stroke="#C57442" stroke-width="2.01585" stroke-miterlimit="10" stroke-linecap="round" stroke-linejoin="round"/>
<path d="M4.44482 42.3208C4.62991 42.8587 7.80263 45.1084 12.2871 46.4451C16.7503 47.7755 22.1542 46.1966 24.6315 41.0249" stroke="#C57442" stroke-width="2.01585" stroke-miterlimit="10" stroke-linecap="round" stroke-linejoin="round"/>
<path d="M2 48.1318C4.25004 46.6396 7.21202 47.126 8.73329 49.0671C10.0404 50.7347 10.0691 53.2017 8.73329 55.0522" stroke="#C57442" stroke-width="2.01585" stroke-miterlimit="10" stroke-linecap="round" stroke-linejoin="round"/>
<path d="M3.62061 50.8128C4.50437 49.824 5.66177 49.4621 6.23911 49.8153C6.91247 50.2271 7.14701 51.8257 6.05199 53.3067" stroke="#C57442" stroke-width="2.01585" stroke-miterlimit="10" stroke-linecap="round" stroke-linejoin="round"/>
<path d="M12.8016 48.8337C12.2025 49.0439 11.3633 49.6717 11.4923 50.4702C11.6157 51.2335 12.5497 51.6951 13.2692 51.5924C14.3987 51.4311 15.9514 50.9277 15.9886 49.1609C16.0014 48.5584 13.4252 48.615 12.8016 48.8337Z" stroke="#C57442" stroke-width="2.01585" stroke-miterlimit="10" stroke-linecap="round" stroke-linejoin="round"/>
<path d="M16.5889 55.4265C17.2801 54.0665 18.1606 48.957 26.3147 46.8229C33.4354 44.9591 41.7569 48.1597 46.5148 55.676" stroke="#C57442" stroke-width="2.01585" stroke-miterlimit="10" stroke-linecap="round" stroke-linejoin="round"/>
<path d="M24.5805 50.761C21.9348 53.556 25.4691 57.5299 29.6819 50.1892C30.8585 48.1391 35.3708 50.835 36.9764 54.678" stroke="#C57442" stroke-width="2.01585" stroke-miterlimit="10" stroke-linecap="round" stroke-linejoin="round"/>
<path d="M67.7434 55.6762C66.1166 55.1959 65.1562 51.2711 65.3119 50.0962C65.4611 48.9707 66.6118 48.1658 67.5563 48.0387C69.3116 47.8026 71.4454 49.7615 72.5127 53.0888" stroke="#C57442" stroke-width="2.01585" stroke-miterlimit="10" stroke-linecap="round" stroke-linejoin="round"/>
<path d="M44.2504 41.353C44.0251 41.7188 43.1425 43.2429 43.627 44.969C44.2452 47.1715 46.6799 48.2461 48.49 48.2109C51.1051 48.1602 53.6241 45.7695 54.101 42.3505" stroke="#C57442" stroke-width="2.01585" stroke-miterlimit="10" stroke-linecap="round" stroke-linejoin="round"/>
<path d="M59.1087 41.4609C58.2623 42.2995 52.9126 47.1968 57.2575 53.1986" stroke="#C57442" stroke-width="2.01585" stroke-miterlimit="10" stroke-linecap="round" stroke-linejoin="round"/>
<path d="M58.9839 47.3214C59.9975 46.2085 62.6531 43.6174 66.7148 43.0818C67.8324 42.9345 68.8461 42.9705 69.7074 43.0818" stroke="#C57442" stroke-width="2.01585" stroke-miterlimit="10" stroke-linecap="round" stroke-linejoin="round"/>
<path d="M68.3826 50.222C68.0357 50.2374 67.5566 50.87 67.7878 51.4117C68.0372 51.996 68.919 52.0189 69.1474 51.7516C69.4516 51.3953 68.8729 50.2002 68.3826 50.222Z" stroke="#C57442" stroke-width="2.01585" stroke-miterlimit="10" stroke-linecap="round" stroke-linejoin="round"/>
<path d="M32.0122 51.3267C31.4089 51.2522 30.4252 52.2546 30.7375 53.1112C31.0358 53.9292 32.3367 54.1218 32.777 53.706C33.3389 53.1756 32.7512 51.4179 32.0122 51.3267Z" stroke="#C57442" stroke-width="2.01585" stroke-miterlimit="10" stroke-linecap="round" stroke-linejoin="round"/>
<path d="M65.697 18.1759H32.0713V7.84653C32.0713 6.90786 32.8322 6.14697 33.7708 6.14697H63.9973C64.9359 6.14697 65.6968 6.90786 65.6968 7.84653V18.1759H65.697Z" fill="#B3B3B3"/>
<path d="M64.5607 18.1759H30.9351V7.84653C30.9351 6.90786 31.6959 6.14697 32.6346 6.14697H62.861C63.7997 6.14697 64.5606 6.90786 64.5606 7.84653V18.1759H64.5607Z" fill="#D7D7D7"/>
<path d="M64.5608 15.0875L61.4937 12.9634V20.2337H64.5608V15.0875Z" fill="#C1C1C1"/>
<path d="M59.951 18.1761H36.3223V1.18969C36.3223 0.53264 36.8549 0 37.512 0H58.9313C59.4945 0 59.951 0.4565 59.951 1.01973V18.1761Z" fill="#E7E7E7"/>
<path d="M59.2785 18.1761H35.3379V1.18969C35.3379 0.53264 35.8705 0 36.5276 0H58.2589C58.8222 0 59.2787 0.4565 59.2787 1.01973V18.1761H59.2785Z" fill="#F8F8F8"/>
<path d="M33.515 20.2337H28.5166V15.0028C28.5166 13.8765 29.4298 12.9634 30.5561 12.9634H33.515V20.2337Z" fill="#DFE1E0"/>
<path d="M35.2528 20.2337H30.2544V15.0028C30.2544 13.8765 31.1676 12.9634 32.2939 12.9634H35.2528V20.2337Z" fill="#B3B3B3"/>
<path d="M59.7567 20.2337H54.7583V15.0028C54.7583 13.8765 55.6715 12.9634 56.7978 12.9634H59.7567V20.2337Z" fill="#DFE1E0"/>
<path d="M61.494 20.2337H56.4956V15.0028C56.4956 13.8765 57.4088 12.9634 58.5351 12.9634H61.494V20.2337Z" fill="#B3B3B3"/>
<path d="M35.2524 12.9634L45.7511 20.2337H38.3196H35.2524V12.9634Z" fill="#C1C1C1"/>
<path d="M81.1499 34.3853H16.4351V40.0766H81.1499V34.3853Z" fill="#030303"/>
<path d="M62.5398 27.4512H16.9028V41.2861H62.5398V27.4512Z" fill="#272727"/>
<path d="M55.7731 43.9328H27.5962V32.7017H53.7625V38.7803L55.7731 40.0356V43.9328Z" fill="black"/>
<path d="M54.7276 30.2881H32.3814C30.553 30.2881 29.0708 31.7703 29.0708 33.5987V40.2198H32.1055V34.4654C32.1055 33.652 32.765 32.9928 33.5782 32.9928H36.4506C36.9076 32.9928 37.2783 33.3633 37.2783 33.8204V34.2195H40.5691C40.7894 34.2195 40.968 34.0409 40.968 33.8204C40.968 33.3634 41.3385 32.9928 41.7957 32.9928H45.3131C45.7701 32.9928 46.1408 33.3633 46.1408 33.8204V34.2195H49.4316C49.6519 34.2195 49.8307 34.0409 49.8307 33.8204C49.8307 33.3634 50.2012 32.9928 50.6584 32.9928H53.5308C54.3442 32.9928 55.0034 33.6522 55.0034 34.4654V36.1709H58.0382V33.5987C58.0382 31.7703 56.556 30.2881 54.7276 30.2881Z" fill="#212121"/>
<path d="M52.0377 30.2881H29.6914C27.863 30.2881 26.3809 31.7703 26.3809 33.5987V40.2198H29.4156V34.4654C29.4156 33.652 30.075 32.9928 30.8882 32.9928H33.7607C34.2177 32.9928 34.5883 33.3633 34.5883 33.8204C34.5883 34.0409 34.767 34.2195 34.9872 34.2195H37.8792C38.0995 34.2195 38.2781 34.0409 38.2781 33.8204C38.2781 33.3634 38.6486 32.9928 39.1058 32.9928H42.6232C43.0802 32.9928 43.4508 33.3633 43.4508 33.8204C43.4508 34.0409 43.6295 34.2195 43.8497 34.2195H46.7417C46.962 34.2195 47.1406 34.0409 47.1406 33.8204C47.1406 33.3634 47.5111 32.9928 47.9683 32.9928H50.8407C51.6541 32.9928 52.3133 33.6522 52.3133 34.4654V36.1709H55.3481V33.5987C55.3482 31.7703 53.8661 30.2881 52.0377 30.2881Z" fill="#4C4C4C"/>
<path d="M51.8215 39.5405H24.7666V44.3778H52.4481H58.4332C55.7124 44.3778 52.6384 42.4626 51.8215 39.5405Z" fill="#272727"/>
<path d="M51.4245 40.2628L51.7986 39.5448L47.6136 39.5405L47.1797 40.53L51.4245 40.2628Z" fill="#212121"/>
<path d="M51.4244 40.2637H24.5801V44.3785H52.2616H58.2467C55.5259 44.3786 52.2415 42.7494 51.4244 40.2637Z" fill="#4C4C4C"/>
<path opacity="0.2" d="M48.8263 38.4531H28.9575C26.7087 38.4531 24.8857 40.2762 24.8857 42.5249V45.6878V48.7188C24.8857 49.5735 25.5786 50.2664 26.4334 50.2664H45.8338C47.4866 50.2664 48.8263 48.9266 48.8263 47.2738V43.3618C48.8263 41.1129 50.6495 39.29 52.8983 39.29H54.2076V38.4531H48.8263Z" fill="#020202"/>
<path d="M76.6617 18.1934H20.9246C17.6191 18.1934 14.9395 20.873 14.9395 24.1785V36.71H24.604V33.3434C24.604 31.6905 25.9437 30.3508 27.5965 30.3508H49.2929C50.9457 30.3508 52.2855 31.6905 52.2855 33.3434V36.71H82.6468V24.1785C82.6468 20.873 79.9671 18.1934 76.6617 18.1934Z" fill="#3E3E3E"/>
<path d="M82.6467 36.71V24.1785C82.6467 20.873 79.967 18.1934 76.6616 18.1934H68.0579C64.7524 18.1934 62.0728 20.873 62.0728 24.1785V36.71H82.6467Z" fill="#2C2C2C"/>
<path d="M81.3372 36.7098V24.1783C81.3372 21.9094 79.4913 20.0635 77.2224 20.0635H68.6187C66.3498 20.0635 64.5039 21.9094 64.5039 24.1783V36.7098H81.3372Z" fill="#3E3E3E"/>
<path d="M80.7761 36.7098V24.1783C80.7761 21.9094 78.9302 20.0635 76.6613 20.0635H68.0577C65.7888 20.0635 63.9429 21.9094 63.9429 24.1783V36.7098H80.7761Z" fill="#121212"/>
<path d="M99.8839 52.237H74.0379C73.0192 52.237 72.1934 51.4112 72.1934 50.3925V46.2259C72.1934 45.2072 73.0192 44.3813 74.0379 44.3813H99.884C100.903 44.3813 101.729 45.2072 101.729 46.2259V50.3925C101.728 51.4112 100.903 52.237 99.8839 52.237Z" fill="#A55137"/>
<path d="M37.6767 35.7412H35.1523V37.144H37.6767V35.7412Z" fill="#212121"/>
<path d="M48.0297 35.7412H45.5054V37.144H48.0297V35.7412Z" fill="#212121"/>
<path d="M35.4321 35.7412H32.9077V37.144H35.4321V35.7412Z" fill="#4C4C4C"/>
<path d="M45.7856 35.7412H43.2612V36.7098H45.7856V35.7412Z" fill="#4C4C4C"/>
<path d="M45.786 36.623H35.4326V37.1441H45.786V36.623Z" fill="#4C4C4C"/>
<path d="M58.9504 18.1934H20.4927V18.7269C20.4927 21.8921 23.0585 24.4579 26.2237 24.4579H53.2195C56.3847 24.4579 58.9505 21.8921 58.9505 18.7269V18.1934H58.9504Z" fill="#4C4C4C"/>
<path d="M26.2233 23.1487H53.219C56.121 23.1487 58.5175 20.9915 58.8963 18.1934H20.5459C20.9249 20.9913 23.3214 23.1487 26.2233 23.1487Z" fill="#0E0E0E"/>
<path d="M28.5132 21.806H26.9725C26.7642 21.806 26.5952 21.637 26.5952 21.4287V21.3529C26.5952 21.1445 26.7642 20.9756 26.9725 20.9756H28.5132C28.7215 20.9756 28.8905 21.1445 28.8905 21.3529V21.4287C28.8905 21.637 28.7215 21.806 28.5132 21.806Z" fill="#2677BC"/>
<path d="M30.2336 21.806H29.8407C29.6323 21.806 29.4634 21.637 29.4634 21.4287V21.3529C29.4634 21.1445 29.6323 20.9756 29.8407 20.9756H30.2336C30.442 20.9756 30.6109 21.1445 30.6109 21.3529V21.4287C30.6109 21.637 30.442 21.806 30.2336 21.806Z" fill="#932B3A"/>
<path d="M52.3387 21.3255H39.5219C39.0455 21.3255 38.6592 20.9394 38.6592 20.4628V20.2894C38.6592 19.8131 39.0453 19.4268 39.5219 19.4268H52.3387C52.8151 19.4268 53.2014 19.8129 53.2014 20.2894V20.4628C53.2014 20.9394 52.8153 21.3255 52.3387 21.3255Z" fill="#1F1F1F"/>
<path d="M42.1288 21.3255H39.5219C39.0455 21.3255 38.6592 20.9394 38.6592 20.4628V20.2894C38.6592 19.8131 39.0453 19.4268 39.5219 19.4268H42.1288C42.6052 19.4268 42.9915 19.8129 42.9915 20.2894V20.4628C42.9913 20.9394 42.6052 21.3255 42.1288 21.3255Z" fill="#313131"/>
<path d="M42.9588 24.4578H30.8483C30.5197 24.4578 30.2534 24.1915 30.2534 23.8629V23.7433C30.2534 23.4148 30.5197 23.1484 30.8483 23.1484H42.9588C43.2873 23.1484 43.5536 23.4148 43.5536 23.7433V23.8629C43.5536 24.1915 43.2873 24.4578 42.9588 24.4578Z" fill="#5A5A5A"/>
<path d="M35.5361 24.4578H32.5446C32.216 24.4578 31.9497 24.1915 31.9497 23.8629V23.7433C31.9497 23.4148 32.216 23.1484 32.5446 23.1484H35.5361C35.8646 23.1484 36.1309 23.4148 36.1309 23.7433V23.8629C36.1309 24.1915 35.8646 24.4578 35.5361 24.4578Z" fill="#676767"/>
<path d="M24.604 37.645H14.9395V38.3932C14.9395 41.6986 17.6191 44.3783 20.9246 44.3783H24.604V37.645Z" fill="#3E3E3E"/>
<path d="M22.9592 39.5125H16.5831C16.2546 39.5125 15.9883 39.2461 15.9883 38.9176V38.798C15.9883 38.4694 16.2546 38.2031 16.5831 38.2031H22.9592C23.2877 38.2031 23.554 38.4694 23.554 38.798V38.9176C23.554 39.2461 23.2877 39.5125 22.9592 39.5125Z" fill="#4D4D4D"/>
<path d="M54.7581 21.0744C55.1062 21.0744 55.3883 20.7922 55.3883 20.4442C55.3883 20.0961 55.1062 19.814 54.7581 19.814C54.4101 19.814 54.1279 20.0961 54.1279 20.4442C54.1279 20.7922 54.4101 21.0744 54.7581 21.0744Z" fill="#BA8F1C"/>
<path d="M46.9562 37.144H27.0874C24.8386 37.144 23.0156 38.9672 23.0156 41.2158V44.3787H35.1521V48.9573H43.9637C45.6165 48.9573 46.9562 47.6175 46.9562 45.9647V42.0527C46.9562 39.8038 48.7793 37.9809 51.028 37.9809H53.7777V37.144H46.9562Z" fill="#F8F8F8"/>
<path opacity="0.85" d="M33.2492 39.3234H27.6271C27.3937 39.3234 27.2046 39.1342 27.2046 38.9009V38.8159C27.2046 38.5825 27.3937 38.3936 27.6271 38.3936H33.2492C33.4826 38.3936 33.6717 38.5827 33.6717 38.8159V38.9009C33.6717 39.1342 33.4826 39.3234 33.2492 39.3234Z" fill="#DDDDDD"/>
<path opacity="0.85" d="M37.395 39.3234H34.5993C34.3659 39.3234 34.1768 39.1342 34.1768 38.9009V38.8159C34.1768 38.5825 34.3659 38.3936 34.5993 38.3936H37.395C37.6284 38.3936 37.8175 38.5827 37.8175 38.8159V38.9009C37.8174 39.1342 37.6284 39.3234 37.395 39.3234Z" fill="#DDDDDD"/>
<path opacity="0.85" d="M42.2617 39.3234H39.466C39.2326 39.3234 39.0435 39.1342 39.0435 38.9009V38.8159C39.0435 38.5825 39.2326 38.3936 39.466 38.3936H42.2617C42.4951 38.3936 42.6842 38.5827 42.6842 38.8159V38.9009C42.6841 39.1342 42.4949 39.3234 42.2617 39.3234Z" fill="#DDDDDD"/>
<path opacity="0.85" d="M34.9584 41.2864H26.5934C26.3601 41.2864 26.1709 41.0973 26.1709 40.8639V40.7789C26.1709 40.5456 26.3601 40.3564 26.5934 40.3564H34.9584C35.1918 40.3564 35.381 40.5456 35.381 40.7789V40.8639C35.3808 41.0973 35.1916 41.2864 34.9584 41.2864Z" fill="#DDDDDD"/>
<path opacity="0.85" d="M41.1781 41.2864H37.548C37.3146 41.2864 37.1255 41.0973 37.1255 40.8639V40.7789C37.1255 40.5456 37.3146 40.3564 37.548 40.3564H41.1781C41.4114 40.3564 41.6006 40.5456 41.6006 40.7789V40.8639C41.6006 41.0973 41.4114 41.2864 41.1781 41.2864Z" fill="#DDDDDD"/>
<path d="M41.5341 45.9647V45.1306C41.5341 44.4693 40.9979 43.9331 40.3366 43.9331H21.7102C21.0489 43.9331 20.5127 44.4693 20.5127 45.1306V45.9647C20.5127 47.6176 21.8525 48.9573 23.5053 48.9573H44.4535V48.9536C42.8348 48.9143 41.5341 47.5928 41.5341 45.9647Z" fill="#E7E7E7"/>
<path d="M84.9194 54.0552C85.0262 53.5515 85.8652 49.8776 89.159 48.4442C89.4749 48.3067 93.2371 46.7269 94.8948 48.8182C95.9713 50.1763 95.7786 52.6008 94.1467 54.4293" stroke="#9D472E" stroke-width="2.01585" stroke-miterlimit="10" stroke-linecap="round" stroke-linejoin="round"/>
<path d="M88.7848 55.4263C88.7473 55.0789 88.4716 52.1693 90.2811 50.9374C90.9096 50.5096 91.9895 50.148 92.4008 50.5633C92.8028 50.9692 92.5427 52.0928 91.6527 53.3066" stroke="#9D472E" stroke-width="2.01585" stroke-miterlimit="10" stroke-linecap="round" stroke-linejoin="round"/>
<path d="M89.284 40.8379C88.026 42.145 84.5307 45.8964 85.2938 46.9478C85.9888 47.9052 89.9448 46.251 91.7778 45.3268C94.2017 44.1046 95.933 42.6365 97.0148 41.586" stroke="#9D472E" stroke-width="2.01585" stroke-miterlimit="10" stroke-linecap="round" stroke-linejoin="round"/>
<path d="M102.252 43.2076C99.8015 43.0208 97.7602 44.0126 97.1392 45.5767C96.611 46.9075 97.2609 48.275 97.638 49.0681C98.8651 51.6496 101.349 52.7212 102.252 53.0582" stroke="#9D472E" stroke-width="2.01585" stroke-miterlimit="10" stroke-linecap="round" stroke-linejoin="round"/>
<path d="M103 47.0722C102.054 46.0725 100.804 46.0118 100.381 46.4488C99.9553 46.8898 100.063 48.1594 101.13 49.0673" stroke="#9D472E" stroke-width="2.01585" stroke-miterlimit="10" stroke-linecap="round" stroke-linejoin="round"/>
<path d="M79.8692 53.3693C78.2582 52.7437 77.5476 51.0576 78.0612 49.8156C78.5208 48.7042 79.9141 48.0613 80.8045 48.3817C81.9433 48.7914 82.6541 50.9194 81.8019 53.5563" stroke="#9D472E" stroke-width="2.01585" stroke-miterlimit="10" stroke-linecap="round" stroke-linejoin="round"/>
<path d="M71.0166 47.4465C72.6103 47.0917 74.2281 47.6711 75.069 48.8805C76.1481 50.432 75.801 52.8081 74.0715 54.1798" stroke="#9D472E" stroke-width="2.01585" stroke-miterlimit="10" stroke-linecap="round" stroke-linejoin="round"/>
<path d="M81.8644 42.7704C79.9741 43.4071 79.0023 44.7844 79.2459 45.7006C79.4969 46.6452 81.0731 47.2241 82.1137 46.8852C83.5979 46.4019 84.5116 43.883 83.9841 40.5884" stroke="#9D472E" stroke-width="2.01585" stroke-miterlimit="10" stroke-linecap="round" stroke-linejoin="round"/>
<path d="M83.7348 48.5689C83.2005 49.1612 83.5608 50.1588 83.9842 50.3145C84.58 50.5337 85.7852 49.264 85.5428 48.6935C85.3652 48.2755 84.2909 47.9525 83.7348 48.5689Z" stroke="#9D472E" stroke-width="2.01585" stroke-miterlimit="10" stroke-linecap="round" stroke-linejoin="round"/>
<path d="M77.3752 47.5087C77.0621 46.9492 75.4763 44.252 72.1382 43.3315" stroke="#9D472E" stroke-width="2.01585" stroke-miterlimit="10" stroke-linecap="round" stroke-linejoin="round"/>
<path d="M52.2852 37.645V38.3932C52.2852 41.6986 54.9648 44.3783 58.2703 44.3783H76.6614C79.9668 44.3783 82.6465 41.6986 82.6465 38.3932V37.645H52.2852Z" fill="#3E3E3E"/>
<path d="M62.0728 37.645V38.3932C62.0728 41.6986 64.7524 44.3783 68.0579 44.3783H76.6616C79.967 44.3783 82.6467 41.6986 82.6467 38.3932V37.645H62.0728Z" fill="#2C2C2C"/>
<path d="M64.5039 37.645V38.3932C64.5039 40.6621 66.3498 42.508 68.6187 42.508H77.2224C79.4913 42.508 81.3371 40.6621 81.3371 38.3932V37.645H64.5039Z" fill="#3E3E3E"/>
<path d="M63.9429 37.645V38.3932C63.9429 40.6621 65.7888 42.508 68.0577 42.508H76.6613C78.9302 42.508 80.7761 40.6621 80.7761 38.3932V37.645H63.9429Z" fill="#121212"/>
<path d="M60.2282 39.5125H53.8522C53.5236 39.5125 53.2573 39.2461 53.2573 38.9176V38.798C53.2573 38.4694 53.5236 38.2031 53.8522 38.2031H60.2282C60.5568 38.2031 60.8231 38.4694 60.8231 38.798V38.9176C60.8231 39.2461 60.5568 39.5125 60.2282 39.5125Z" fill="#4D4D4D"/>
<path d="M39.7083 29.0615H37.5499C37.2327 29.0615 36.9756 28.8043 36.9756 28.4872V26.8155C36.9756 26.4984 37.2327 26.2412 37.5499 26.2412H39.7083C40.0254 26.2412 40.2826 26.4984 40.2826 26.8155V28.4872C40.2827 28.8043 40.0256 29.0615 39.7083 29.0615Z" fill="#0E0E0E"/>
<path d="M39.1473 29.0615H36.9888C36.6717 29.0615 36.4146 28.8043 36.4146 28.4872V26.8155C36.4146 26.4984 36.6717 26.2412 36.9888 26.2412H39.1473C39.4644 26.2412 39.7215 26.4984 39.7215 26.8155V28.4872C39.7215 28.8043 39.4644 29.0615 39.1473 29.0615Z" fill="#B3B3B3"/>
<g opacity="0.54">
<path d="M91.5473 23.8164H90.9643C90.8861 23.8164 90.8228 23.753 90.8228 23.6749V23.4384C90.8228 23.3603 90.8861 23.2969 90.9643 23.2969H91.5473C91.6255 23.2969 91.6888 23.3603 91.6888 23.4384V23.6749C91.6888 23.753 91.6255 23.8164 91.5473 23.8164Z" fill="#0E0E0E"/>
<path d="M93.1586 23.8164H92.5757C92.4975 23.8164 92.4341 23.753 92.4341 23.6749V23.4384C92.4341 23.3603 92.4975 23.2969 92.5757 23.2969H93.1586C93.2368 23.2969 93.3002 23.3603 93.3002 23.4384V23.6749C93.3002 23.753 93.2368 23.8164 93.1586 23.8164Z" fill="#0E0E0E"/>
</g>
<path opacity="0.54" d="M92.237 21.8804H91.8862V22.3741H92.237V21.8804Z" fill="#0E0E0E"/>
<path d="M93.813 32.1251H90.3097C89.9343 32.1251 89.6299 31.8207 89.6299 31.4453V27.942C89.6299 27.5666 89.9343 27.2622 90.3097 27.2622H93.813C94.1884 27.2622 94.4928 27.5666 94.4928 27.942V31.4453C94.4928 31.8207 94.1884 32.1251 93.813 32.1251Z" fill="#121212"/>
</svg>
