<svg width="37" height="37" viewBox="0 0 37 37" fill="none" xmlns="http://www.w3.org/2000/svg">
<path d="M27.9267 12.5406C27.325 12.8121 26.6394 12.98 25.9834 13.0886C26.2942 13.0343 26.738 12.4764 26.9205 12.2493C27.1967 11.9037 27.4236 11.5087 27.5568 11.0841C27.5716 11.0495 27.5814 11.01 27.5518 10.9853C27.5124 10.9705 27.4828 10.9755 27.4483 10.9952C26.7232 11.3853 25.9687 11.6667 25.1697 11.8691C25.1056 11.8839 25.0562 11.8691 25.0118 11.8296C24.9477 11.7555 24.8836 11.6815 24.8146 11.6272C24.4792 11.3408 24.1192 11.1137 23.7098 10.9508C23.1771 10.7335 22.5902 10.6397 22.0132 10.6792C21.4509 10.7138 20.9035 10.8718 20.4054 11.1334C19.9072 11.3951 19.4634 11.7555 19.1083 12.195C18.7433 12.6492 18.472 13.1824 18.3339 13.7502C18.2008 14.2982 18.2106 14.8364 18.2945 15.3894C18.3043 15.4832 18.2945 15.4931 18.2156 15.4832C15.0837 15.0142 12.4846 13.8934 10.3786 11.4889C10.2849 11.3853 10.2356 11.3853 10.1616 11.4988C9.23934 12.8812 9.68815 15.108 10.8373 16.1991C10.9902 16.3472 11.148 16.4904 11.3206 16.6237C11.2565 16.6385 10.4921 16.5546 9.80652 16.1991C9.71282 16.1399 9.66843 16.1744 9.65856 16.2781C9.6487 16.4262 9.65856 16.5645 9.68322 16.7274C9.86077 18.1296 10.8324 19.4281 12.1591 19.9366C12.3169 20.0008 12.4895 20.0601 12.6621 20.0897C12.3613 20.1588 12.0456 20.2032 11.1776 20.1341C11.0691 20.1144 11.0297 20.1687 11.0691 20.2724C11.7201 22.0547 13.1307 22.583 14.1861 22.8842C14.3292 22.9089 14.4673 22.9089 14.6103 22.9434C14.6004 22.9582 14.5955 22.9582 14.5856 22.9681C14.2354 23.5013 13.0222 23.9013 12.4599 24.0988C11.4341 24.4592 10.3145 24.6221 9.22948 24.5135C9.05686 24.4888 9.0174 24.4888 8.97302 24.5135C8.9237 24.5431 8.96808 24.5826 9.02233 24.632C9.24427 24.7801 9.46621 24.9085 9.69309 25.0319C10.3836 25.3973 11.1036 25.6886 11.8533 25.8959C15.7348 26.9673 20.1094 26.1823 23.0243 23.2792C25.3127 21.0031 26.1166 17.863 26.1166 14.7179C26.1166 14.5945 26.2596 14.5254 26.3484 14.4612C26.9452 14.0119 27.4581 13.4787 27.902 12.8763C28.0006 12.743 28.0401 12.6245 28.0401 12.5751V12.5603C28.0401 12.511 28.0056 12.5258 27.9267 12.5603V12.5406Z" fill="#1D2A4C"/>
<path d="M18.4919 0C8.30239 0 0.0117188 8.29957 0.0117188 18.5C0.0117188 28.7004 8.30239 37 18.4919 37C28.6814 37 36.9721 28.7004 36.9721 18.5C36.9721 8.29957 28.6863 0 18.4919 0ZM18.4919 34.6252C9.60937 34.6252 2.37908 27.392 2.37908 18.5C2.37908 9.60795 9.60937 2.37483 18.4919 2.37483C27.3744 2.37483 34.6047 9.60795 34.6047 18.5C34.6047 27.392 27.3793 34.6252 18.4919 34.6252Z" fill="#1D2A4C"/>
</svg>
