<svg width="37" height="37" viewBox="0 0 37 37" fill="none" xmlns="http://www.w3.org/2000/svg">
<path d="M22.0891 19.6801C21.7044 19.4481 21.2013 19.1913 20.7476 19.3789C20.3974 19.5221 20.1754 20.0702 19.9486 20.3467C19.8302 20.4898 19.6921 20.5145 19.5146 20.4405C18.2027 19.9171 17.2015 19.0432 16.4765 17.8336C16.3532 17.646 16.3778 17.4978 16.5258 17.325C16.7428 17.0683 17.019 16.777 17.0782 16.4264C17.1373 16.0808 16.9746 15.676 16.8316 15.3649C16.6491 14.97 16.4419 14.4071 16.0474 14.1849C15.6824 13.9776 15.204 14.0961 14.8834 14.3577C14.3261 14.812 14.0548 15.5279 14.0647 16.2339C14.0647 16.4363 14.0894 16.6338 14.1387 16.8313C14.2521 17.2954 14.4642 17.7348 14.7108 18.1446C14.8933 18.4557 15.0906 18.7618 15.3076 19.0531C16.0079 20.006 16.8809 20.8354 17.8919 21.4526C18.395 21.7637 18.9375 22.0352 19.5047 22.2179C20.136 22.4252 20.6982 22.6425 21.3789 22.5141C22.094 22.3808 22.7943 21.9365 23.0804 21.2502C23.1642 21.0477 23.2086 20.8206 23.1593 20.6034C23.0607 20.159 22.459 19.8924 22.0989 19.6801H22.0891Z" fill="#1D2A4C"/>
<path d="M18.5973 8.98096C13.4237 8.98096 9.21666 13.1925 9.21666 18.3717C9.21666 19.9565 9.62108 21.5167 10.3954 22.909L9.03418 27.9944L14.1437 26.6268C15.5148 27.3723 17.0487 27.7673 18.6022 27.7673C23.7759 27.7673 27.9829 23.5558 27.9829 18.3766C27.9829 13.1974 23.7759 8.98589 18.6022 8.98589L18.5973 8.98096ZM18.5973 25.9899C17.2361 25.9899 15.8946 25.6196 14.7109 24.9136L14.3903 24.721L11.5396 25.4863L12.2992 22.6474L12.1019 22.3215C11.3719 21.1267 10.9872 19.759 10.9872 18.3717C10.9872 14.17 14.4002 10.7534 18.5973 10.7534C22.7944 10.7534 26.2074 14.17 26.2074 18.3717C26.2074 22.5733 22.7944 25.9899 18.5973 25.9899Z" fill="#1D2A4C"/>
<path d="M18.5085 0C8.319 0 0.0283203 8.29957 0.0283203 18.5C0.0283203 28.7004 8.319 37 18.5085 37C28.698 37 36.9887 28.7004 36.9887 18.5C36.9887 8.29957 28.698 0 18.5085 0ZM18.5085 34.6252C9.62597 34.6252 2.40061 27.392 2.40061 18.5C2.40061 9.60795 9.62597 2.37483 18.5085 2.37483C27.391 2.37483 34.6164 9.60795 34.6164 18.5C34.6164 27.392 27.391 34.6252 18.5085 34.6252Z" fill="#1D2A4C"/>
</svg>
